<?xml version="1.0" standalone="no"?>
<!DOCTYPE svg PUBLIC "-//W3C//DTD SVG 1.1//EN" "http://www.w3.org/Graphics/SVG/1.1/DTD/svg11.dtd" >
<svg>
<metadata>
Created by FontForge 20090622 at Wed Apr 12 18:12:31 2017
 By deploy user
Copyright (c) 2009 by Aldo Ojeda Campos. All rights reserved.
</metadata>
<defs>
<font id="MadameButterfly" horiz-adv-x="500" >
  <font-face 
    font-family="Madame Butterfly"
    font-weight="400"
    font-stretch="normal"
    units-per-em="1000"
    panose-1="0 0 0 0 0 0 0 0 0 0"
    ascent="750"
    descent="-250"
    x-height="700"
    cap-height="900"
    bbox="-50 -100 751 1100"
    underline-thickness="50"
    underline-position="-50"
    unicode-range="U+0020-U+20AC"
  />
<missing-glyph horiz-adv-x="0" 
 />
    <glyph glyph-name=".notdef" horiz-adv-x="0" 
 />
    <glyph glyph-name=".null" horiz-adv-x="0" 
 />
    <glyph glyph-name="nonmarkingreturn" horiz-adv-x="0" 
 />
    <glyph glyph-name="space" unicode=" " horiz-adv-x="400" 
 />
    <glyph glyph-name="space" unicode="&#xa0;" horiz-adv-x="400" 
 />
    <glyph glyph-name="E" unicode="E" 
d="M50 700q3 56 25 100q9 19 23.5 37t35.5 32t49.5 22.5t66.5 8.5h200v-100h-200q-28 -2 -50 -13q-19 -10 -34.5 -29.5t-15.5 -57.5v-300h200v-100h-200v-100q1 -28 12 -50q9 -19 29.5 -34.5t58.5 -15.5h200v-100h-200q-56 3 -100 25q-19 9 -37 23.5t-32 35.5t-22.5 49.5
t-8.5 66.5v500z" />
    <glyph glyph-name="F" unicode="F" 
d="M50 0v700q3 56 25 100q9 19 23.5 37t35.5 32t49.5 22.5t66.5 8.5h200v-100h-200q-28 -2 -50 -13q-19 -10 -34.5 -29.5t-15.5 -57.5v-300h200v-100h-200v-300h-100z" />
    <glyph glyph-name="G" unicode="G" 
d="M251 403h202v-202q-3 -57 -25 -101q-9 -19 -24 -37t-36 -32t-50 -22.5t-67 -8.5t-66.5 8.5t-50 22.5t-36 32t-23.5 37q-22 44 -25 101v504q3 56 25 101q9 19 23.5 37t36 32t50 23t66.5 9t67 -9t50 -23t36 -32t24 -37q22 -45 25 -101h-101q-2 28 -13 50q-10 19 -30 35
t-58 16t-58.5 -16t-29.5 -35q-11 -22 -12 -50v-504q1 -28 12 -50q9 -19 29.5 -34.5t58.5 -15.5t58 15.5t30 34.5q11 22 13 50v101h-101v101z" />
    <glyph glyph-name="H" unicode="H" 
d="M50 901h100v-501h200v501h100v-901h-100v300h-200v-300h-100v901v0z" />
    <glyph glyph-name="I" unicode="I" horiz-adv-x="200" 
d="M150 0h-100v900h100v-900v0z" />
    <glyph glyph-name="J" unicode="J" 
d="M150 200q1 -28 12 -50q9 -19 29.5 -34.5t58.5 -15.5t57.5 15.5t29.5 34.5q11 22 13 50v700h100v-700q-3 -56 -25 -100q-9 -19 -23.5 -37t-35.5 -32t-50 -22.5t-66 -8.5q-38 0 -66.5 8.5t-49.5 22.5t-35.5 32t-23.5 37q-22 44 -25 100h100z" />
    <glyph glyph-name="K" unicode="K" 
d="M450 500q0 -29 -5.5 -52.5t-15 -42t-21.5 -33.5t-25 -28q26 -17 46.5 -51t20.5 -93v-200h-100v200q-2 28 -13 50q-10 19 -29.5 34.5t-57.5 15.5h-100v-300h-100v900h100v-500h100q38 0 57.5 15.5t29.5 34.5q11 22 13 50v400h100v-400v0z" />
    <glyph glyph-name="L" unicode="L" 
d="M150 900v-700q0 -38 15.5 -58.5t34.5 -29.5q22 -11 50 -12h200v-100h-200q-38 0 -66.5 8.5t-49.5 22.5t-35.5 32t-23.5 37q-22 44 -25 100v700h100z" />
    <glyph glyph-name="M" unicode="M" horiz-adv-x="801" 
d="M551 901q37 0 66 -8.5t50 -22.5t35.5 -32t23.5 -37q22 -44 25 -100v-701h-100v701q-2 28 -13 50q-10 19 -29.5 35t-57.5 16t-58 -16t-30 -35q-11 -22 -13 -50v-701h-99v701q-2 28 -13 50q-10 19 -30 35t-58 16t-58 -16t-29 -35q-11 -22 -12 -50v-701h-101v701
q3 56 25 100q9 19 23.5 37t35.5 32t49.5 22.5t66.5 8.5q59 0 93.5 -20.5t51.5 -46.5q12 13 27 25t34 21.5t42.5 15t52.5 5.5z" />
    <glyph glyph-name="N" unicode="N" 
d="M50 0v700q3 56 25 100q9 19 23.5 37t35.5 32t49.5 22.5t66.5 8.5q37 0 66 -8.5t50 -22.5t35.5 -32t23.5 -37q22 -44 25 -100v-700h-100v700q-2 28 -13 50q-10 19 -29.5 34.5t-57.5 15.5t-58.5 -15.5t-29.5 -34.5q-11 -22 -12 -50v-700h-100z" />
    <glyph glyph-name="Ntilde" unicode="&#xd1;" 
d="M50 1000q1 28 12 50q9 19 29.5 34.5t58.5 15.5h300q-2 -28 -13 -50q-10 -19 -29.5 -34.5t-57.5 -15.5h-300zM50 0v700q3 56 25 100q9 19 23.5 37t35.5 32t49.5 22.5t66.5 8.5q37 0 66 -8.5t50 -22.5t35.5 -32t23.5 -37q22 -44 25 -100v-700h-100v700q-2 28 -13 50
q-10 19 -29.5 34.5t-57.5 15.5t-58.5 -15.5t-29.5 -34.5q-11 -22 -12 -50v-700h-100z" />
    <glyph glyph-name="O" unicode="O" 
d="M250 900q37 0 66 -8.5t50 -22.5t35.5 -32t23.5 -37q22 -44 25 -100v-500q-3 -56 -25 -100q-9 -19 -23.5 -37t-35.5 -32t-50 -22.5t-66 -8.5q-38 0 -66.5 8.5t-49.5 22.5t-35.5 32t-23.5 37q-22 44 -25 100v500q3 56 25 100q9 19 23.5 37t35.5 32t49.5 22.5t66.5 8.5z
M350 700q-2 28 -13 50q-10 19 -29.5 34.5t-57.5 15.5t-58.5 -15.5t-29.5 -34.5q-11 -22 -12 -50v-500q1 -28 12 -50q9 -19 29.5 -34.5t58.5 -15.5t57.5 15.5t29.5 34.5q11 22 13 50v500z" />
    <glyph glyph-name="P" unicode="P" horiz-adv-x="501" 
d="M250 900q37 0 66 -8.5t50 -22.5t35.5 -32t23.5 -37q22 -44 25 -100v-200q0 -38 -8.5 -66.5t-22.5 -49.5t-32 -35.5t-37 -23.5q-44 -22 -100 -25h-100v-300h-100v900h200zM350 700q-2 28 -13 50q-10 19 -29.5 34.5t-57.5 15.5h-100v-400h100q28 1 50 12q19 9 34.5 29.5
t15.5 58.5v200z" />
    <glyph glyph-name="Q" unicode="Q" 
d="M450 200q0 -17 -3 -34q-2 -15 -6.5 -32t-12.5 -34l22 -33l-67 -67l-33 22q-17 -8 -42 -15t-58 -7q-38 0 -66.5 8.5t-49.5 22.5t-35.5 32t-23.5 37q-22 44 -25 100v500q3 56 25 100q9 19 23.5 37t35.5 32t49.5 22.5t66.5 8.5q37 0 66 -8.5t50 -22.5t35.5 -32t23.5 -37
q22 -44 25 -100v-500zM350 178v22v500q-2 28 -13 50q-10 19 -29.5 34.5t-57.5 15.5t-58.5 -15.5t-29.5 -34.5q-11 -22 -12 -50v-500q1 -28 12 -50q9 -19 29.5 -34.5t58.5 -15.5h22l-33 44l67 67z" />
    <glyph glyph-name="R" unicode="R" 
d="M450 500q0 -29 -5.5 -52.5t-15 -42t-21.5 -33.5t-25 -28q25 -21 39 -46t20 -47q7 -26 8 -51v-200h-100v200q0 38 -15.5 57.5t-34.5 29.5q-22 11 -50 13h-100v-300h-100v900h200q37 0 66 -8.5t50 -22.5t35.5 -32t23.5 -37q22 -44 25 -100v-200zM250 400q28 1 50 12
q19 9 34.5 29.5t15.5 58.5v200q-2 28 -13 50q-10 19 -29.5 34.5t-57.5 15.5h-100v-400h100z" />
    <glyph glyph-name="S" unicode="S" 
d="M250 400q37 0 66 -8.5t50 -22.5t35.5 -32t23.5 -37q22 -44 25 -100q-3 -56 -25 -100q-9 -19 -23.5 -37t-35.5 -32t-50 -22.5t-66 -8.5q-38 0 -66.5 8.5t-49.5 22.5t-35.5 32t-23.5 37q-22 44 -25 100h100q0 -38 15.5 -58.5t34.5 -29.5q22 -11 50 -12q28 1 50 12
q19 9 34.5 29.5t15.5 58.5t-15.5 57.5t-34.5 29.5q-22 11 -50 13q-38 0 -66.5 8.5t-49.5 22.5t-35.5 32t-23.5 37q-22 44 -25 100v200q3 56 25 100q9 19 23.5 37t35.5 32t49.5 22.5t66.5 8.5q37 0 66 -8.5t50 -22.5t35.5 -32t23.5 -37q22 -44 25 -100h-100q-2 28 -13 50
q-10 19 -29.5 34.5t-57.5 15.5t-58.5 -15.5t-29.5 -34.5q-11 -22 -12 -50v-200q0 -38 15.5 -58.5t34.5 -29.5q22 -11 50 -12z" />
    <glyph glyph-name="T" unicode="T" 
d="M449 900l1 -100h-150v-800h-100v800h-150v100h400h-1z" />
    <glyph glyph-name="U" unicode="U" 
d="M150 900v-700q1 -28 12 -50q9 -19 29.5 -34.5t58.5 -15.5t57.5 15.5t29.5 34.5q11 22 13 50v700h100v-700q-3 -56 -25 -100q-9 -19 -23.5 -37t-35.5 -32t-50 -22.5t-66 -8.5q-38 0 -66.5 8.5t-49.5 22.5t-35.5 32t-23.5 37q-22 44 -25 100v700h100z" />
    <glyph glyph-name="V" unicode="V" 
d="M150 900v-800h100q38 0 57.5 15.5t29.5 34.5q11 22 13 50v700h100v-700q0 -38 -8.5 -66.5t-22.5 -49.5t-32 -35.5t-37 -23.5q-44 -22 -100 -25h-200v900h100z" />
    <glyph glyph-name="D" unicode="D" 
d="M250 900q56 -3 100 -25q19 -9 37 -23.5t32 -35.5t22.5 -50t8.5 -66v-500q-3 -56 -25 -100q-9 -19 -23.5 -37t-35.5 -32t-50 -22.5t-66 -8.5h-200v900h200zM350 700q-2 28 -13 50q-10 19 -29.5 34.5t-57.5 15.5h-100v-700h100q28 1 50 12q19 9 34.5 29.5t15.5 58.5v500z
" />
    <glyph glyph-name="W" unicode="W" horiz-adv-x="800" 
d="M750 900v-700q-3 -56 -25 -100q-9 -19 -23.5 -37t-35.5 -32t-50 -22.5t-66 -8.5q-58 0 -94 16.5t-62 50.5q-17 -34 -51.5 -50.5t-92.5 -16.5q-38 0 -66.5 8.5t-49.5 22.5t-35.5 32t-23.5 37q-22 44 -25 100v700h101v-700q1 -28 12 -50q9 -19 29 -34t58 -15t57.5 15
t29.5 34q11 22 13 50v700h100v-700q1 -28 12 -50q9 -19 29.5 -34t58.5 -15t58 15t30 34q11 22 13 50v700h99z" />
    <glyph glyph-name="X" unicode="X" 
d="M450 500q-1 -26 -8 -53q-6 -23 -20 -50.5t-39 -52.5q25 -21 39 -46t20 -47q7 -26 8 -51v-200h-100v200q0 38 -15.5 57.5t-34.5 29.5q-22 11 -50 13q-28 -2 -50 -13q-19 -10 -34.5 -29.5t-15.5 -57.5v-200h-100v200q1 25 7 51q5 22 16.5 47t32.5 46q-21 25 -32.5 52.5
t-16.5 50.5q-6 27 -7 53v400h100v-400q0 -38 15.5 -58.5t34.5 -29.5q22 -11 50 -12q28 1 50 12q19 9 34.5 29.5t15.5 58.5v400h100v-400v0z" />
    <glyph glyph-name="Y" unicode="Y" 
d="M450 900v-400q-2 -48 -19 -88q-14 -35 -44.5 -67.5t-86.5 -44.5v-300h-100v300q-56 12 -86.5 44.5t-44.5 67.5q-17 40 -19 88v400h100v-400q1 -28 12 -50q9 -19 29.5 -34.5t58.5 -15.5t57.5 15.5t29.5 34.5q11 22 13 50v400h100z" />
    <glyph glyph-name="Z" unicode="Z" 
d="M450 900v-400q-3 -56 -25 -100q-9 -19 -23.5 -37t-35.5 -32t-50 -22.5t-66 -8.5q-28 -2 -50 -13q-19 -10 -34.5 -29.5t-15.5 -57.5v-100h300v-100h-400v200q3 59 25 104q9 19 23.5 37t35.5 32t49.5 21.5t66.5 5.5q28 1 50 12q19 9 34.5 29.5t15.5 58.5v300h-300v100h400z
" />
    <glyph glyph-name="quotedbl" unicode="&#x22;" horiz-adv-x="400" 
d="M150 800q0 -38 -15.5 -58t-34.5 -29q-22 -11 -50 -12v99q0 38 15.5 57.5t34.5 29.5q22 11 50 13v-100zM349 800q0 -38 -15.5 -58t-34.5 -29q-22 -11 -50 -12v99q0 38 15.5 57.5t34.5 29.5q22 11 50 13v-100z" />
    <glyph glyph-name="fraction" unicode="&#x2044;" 
d="M350 900h100l-289 -900h-111l300 900v0z" />
    <glyph glyph-name="exclam" unicode="!" horiz-adv-x="200" 
d="M150 44q0 -17 -15 -30.5t-41 -13.5q-17 0 -30.5 13.5t-13.5 30.5q0 26 13.5 41t30.5 15q26 0 41 -15t15 -41zM150 200h-100v700h100v-700z" />
    <glyph glyph-name="at" unicode="@" 
d="M451 0h-204q-56 3 -99 25q-18 9 -36 23.5t-31.5 35t-22 48.5t-8.5 65v500q3 56 25 101q9 19 23.5 37.5t35 32.5t48.5 23t65 9q38 0 67 -9t50.5 -23t36 -32.5t24.5 -37.5q22 -45 26 -101v-296q-4 -57 -26 -102q-10 -19 -24.5 -37.5t-36 -32.5t-50.5 -23t-67 -9v99
q29 2 52 13q20 10 36.5 31t16.5 61v296q-2 29 -13 52q-10 20 -31.5 36t-60.5 16q-37 0 -57 -16t-29 -36q-11 -23 -12 -52v-500q1 -28 12 -49q9 -19 29 -34t57 -15h204v-99z" />
    <glyph glyph-name="exclamdown" unicode="&#xa1;" horiz-adv-x="200" 
d="M50 844q0 26 13.5 41t30.5 15q26 0 41 -15t15 -41q0 -17 -15 -30.5t-41 -13.5q-17 0 -30.5 13.5t-13.5 30.5zM50 700h100v-700h-100v700z" />
    <glyph glyph-name="questiondown" unicode="&#xbf;" 
d="M350 845q0 25 14 40t31 15q25 0 40 -15t15 -40q0 -17 -15 -31t-40 -14q-17 0 -31 14t-14 31zM450 700v-99q-3 -57 -25 -101q-9 -19 -23.5 -37t-35.5 -32t-49.5 -22.5t-65.5 -8.5q-29 -2 -51 -13q-19 -10 -34.5 -29.5t-15.5 -57.5v-99q2 -29 13 -51q10 -19 30 -34.5
t58 -15.5q37 0 57.5 15.5t29.5 34.5q11 22 12 51h100q-3 -57 -25 -101q-9 -19 -23.5 -37t-35.5 -32t-49.5 -22.5t-65.5 -8.5q-38 0 -66.5 8.5t-50 22.5t-36 32t-23.5 37q-22 44 -25 101v99q3 56 25 100q9 19 23.5 37t36 32t50 22.5t66.5 8.5q27 2 49 13q19 10 34.5 30
t15.5 58v99h100z" />
    <glyph glyph-name="numbersign" unicode="#" 
d="M450 400h-50v-100h50v-100h-50v-50h-100v50h-100v-50h-100v50h-50v100h50v100h-50v100h50v50h100v-50h100v50h100v-50h50v-100zM300 300v100h-100v-100h100z" />
    <glyph glyph-name="dollar" unicode="$" 
d="M294 401q58 -13 89.5 -45t46.5 -66q17 -40 20 -87q-3 -48 -20 -88q-15 -35 -46.5 -68t-89.5 -45v-100h-100v100q-27 6 -47.5 18t-35.5 27.5t-25.5 33t-17.5 34.5q-16 40 -18 88h99q0 -43 14 -62.5t31 -28.5v189q-54 13 -83 45t-43 67q-16 40 -18 87v101q2 48 18 88
q14 35 43 67.5t83 44.5v99h100v-99q29 -6 51 -18t38.5 -27t27.5 -32.5t19 -34.5q17 -40 20 -88h-100q-1 19 -7 36q-5 14 -16.5 29t-32.5 23v-288zM149 500q0 -41 14 -60.5t31 -27.5v277q-17 -8 -25.5 -23t-13.5 -29q-5 -17 -6 -36v-101zM294 112q26 9 41 28.5t15 62.5
q0 32 -15 56t-41 32v-179z" />
    <glyph glyph-name="percent" unicode="%" 
d="M450 244q0 -17 -15.5 -31t-40.5 -14q-17 0 -30.5 14t-13.5 31q0 25 13.5 40.5t30.5 15.5q25 0 40.5 -15.5t15.5 -40.5zM150 644q0 -17 -15 -30.5t-40 -13.5q-17 0 -31 13.5t-14 30.5q0 26 14 40.5t31 14.5q25 0 40 -14.5t15 -40.5zM450 900l-289 -900h-111l300 900h100z
M450 900l-289 -900h-111l300 900h100z" />
    <glyph glyph-name="ampersand" unicode="&#x26;" 
d="M456 500q-4 -57 -26 -101q-10 -19 -24.5 -37t-36 -32t-50.5 -22.5t-67 -8.5l91 -132q8 0 9.5 12t1.5 20h102q-1 -22 -6 -45q-5 -20 -13.5 -43t-25.5 -44l45 -67h-124l-12 11q-17 -8 -34 -9.5t-34 -1.5q-38 0 -67 8.5t-50 22.5t-36 31.5t-24 36.5q-22 44 -25 100
q1 26 7 52q5 22 16.5 47t33.5 47l-23 33l-12 22q-8 17 -15 41.5t-7 58.5v100v100q3 56 25 100q9 19 24 37t36 32t50 22.5t67 8.5t67 -8.5t50.5 -22.5t36 -32t24.5 -37q22 -44 26 -100v-200zM252 800q-38 0 -58.5 -15.5t-29.5 -34.5q-11 -22 -12 -50v-212q0 -7 1 -14
q1 -6 3 -13.5t7 -15.5q0 -3 1 -6q2 -5 10 -5l24 -45q16 8 27 9.5t27 1.5q28 1 51 12q19 9 35 29.5t16 58.5v189q-2 30 -13 55q-10 21 -30.5 38.5t-58.5 17.5zM263 100l-100 155q-8 -8 -9.5 -23.5t-1.5 -32.5q0 -38 15.5 -58t34.5 -29q22 -11 50 -12h11z" />
    <glyph glyph-name="quotesingle" unicode="'" horiz-adv-x="199" 
d="M149 800q0 -38 -15.5 -58t-34.5 -29q-22 -11 -49 -12v99q0 38 15 57.5t34 29.5q22 11 50 13v-100z" />
    <glyph glyph-name="parenleft" unicode="(" horiz-adv-x="300" 
d="M251 0q-57 3 -101 25q-19 9 -37 23.5t-32 36t-22.5 50t-8.5 66.5v498q3 56 25 100q9 19 23.5 37t36 32t50 23t66.5 9v-99q-29 -2 -51 -13q-20 -10 -35.5 -30.5t-15.5 -58.5v-498q2 -29 13 -51q10 -20 30.5 -35.5t58.5 -15.5v-99z" />
    <glyph glyph-name="parenright" unicode=")" horiz-adv-x="300" 
d="M50 900q56 -3 100 -25q19 -9 37 -23.5t32 -35.5t22.5 -50t8.5 -66v-500q-3 -56 -25 -100q-9 -19 -23.5 -37t-35.5 -32t-50 -22.5t-66 -8.5v101q27 1 49 12q19 9 34.5 29t15.5 58v500q-1 27 -12 49q-9 19 -29.5 34.5t-57.5 15.5v101z" />
    <glyph glyph-name="asterisk" unicode="*" 
d="M451 554l-98 -54l98 -53l-58 -89l-98 55v-113h-98v113l-104 -55l-43 89l98 53l-98 54l43 89l104 -55v113h98v-113l98 55l58 -89v0z" />
    <glyph glyph-name="plus" unicode="+" 
d="M450 400v-100h-155v-156h-101v156h-144v100h144v144h101v-144h155v0z" />
    <glyph glyph-name="comma" unicode="," horiz-adv-x="199" 
d="M150 0q0 -38 -15.5 -58.5t-34.5 -29.5q-22 -11 -50 -12v100q0 38 15.5 57.5t34.5 29.5q22 11 50 13v-100z" />
    <glyph glyph-name="hyphen" unicode="-" 
d="M450 400v-100h-400v100h400v0z" />
    <glyph glyph-name="period" unicode="." horiz-adv-x="200" 
d="M150 50q0 -19 -8 -29t-17 -15q-11 -5 -25 -6q-19 0 -29 7.5t-15 17.5q-5 11 -6 25q0 19 7.5 29t17.5 15q11 5 25 6q19 0 29 -8t15 -17q5 -11 6 -25z" />
    <glyph glyph-name="slash" unicode="/" 
d="M450 900l-289 -900h-111l300 900h100z" />
    <glyph glyph-name="zero" unicode="0" 
d="M250 900q37 0 66 -8.5t50 -22.5t35.5 -32t23.5 -37q22 -44 25 -100v-500q-3 -56 -25 -100q-9 -19 -23.5 -37t-35.5 -32t-50 -22.5t-66 -8.5q-38 0 -66.5 8.5t-49.5 22.5t-35.5 32t-23.5 37q-22 44 -25 100v500q3 56 25 100q9 19 23.5 37t35.5 32t49.5 22.5t66.5 8.5z
M350 700q-2 28 -13 50q-10 19 -29.5 34.5t-57.5 15.5t-58.5 -15.5t-29.5 -34.5q-11 -22 -12 -50v-500q1 -28 12 -50q9 -19 29.5 -34.5t58.5 -15.5t57.5 15.5t29.5 34.5q11 22 13 50v500z" />
    <glyph glyph-name="one" unicode="1" horiz-adv-x="200" 
d="M50 0v800q1 28 12 50q9 19 29.5 34.5t58.5 15.5v-900h-100z" />
    <glyph glyph-name="two" unicode="2" 
d="M250 299q-28 -1 -50 -12q-19 -9 -34 -29.5t-15 -57.5v-99h299v-101h-400v200q3 56 25 100q9 19 23.5 37t35.5 32t49.5 22.5t66.5 8.5q27 2 49 13q19 10 34.5 30t15.5 58v198q-1 28 -12 50q-9 19 -29.5 35t-57.5 16q-38 0 -58 -16t-29 -35q-11 -22 -12 -50h-101
q3 56 25 101q9 19 23.5 37t35.5 32t49.5 23t66.5 9q37 0 66 -9t50 -23t35.5 -32t23.5 -37q22 -45 25 -101v-198q-3 -57 -25 -101q-9 -19 -23.5 -37t-35.5 -32.5t-50 -23t-66 -8.5z" />
    <glyph glyph-name="three" unicode="3" horiz-adv-x="501" 
d="M150 200q1 -28 12 -50q9 -19 29.5 -34.5t58.5 -15.5t57.5 15.5t29.5 34.5q11 22 13 50v100h-200v101h200v299q-2 28 -13 50q-10 19 -29.5 35t-57.5 16t-58.5 -16t-29.5 -35q-11 -22 -12 -50h-100q3 56 25 100q9 19 23.5 37t35.5 32t49.5 23t66.5 9q37 0 66 -9t50 -23
t36 -32t24 -37q22 -44 25 -100v-500q-3 -56 -25 -100q-9 -19 -24 -37t-36 -32t-50 -22.5t-66 -8.5q-38 0 -66.5 8.5t-49.5 22.5t-35.5 32t-23.5 37q-22 44 -25 100h100z" />
    <glyph glyph-name="four" unicode="4" 
d="M150 900v-400q0 -38 15.5 -58.5t34.5 -29.5q22 -11 50 -12h100v500h100v-900h-100v300h-100q-38 0 -66.5 8.5t-49.5 22.5t-35.5 32t-23.5 37q-22 44 -25 100v400h100z" />
    <glyph glyph-name="five" unicode="5" 
d="M450 800h-300v-301q0 -38 15.5 -58t34.5 -29q22 -11 51 -12q37 0 65.5 -8.5t49.5 -22.5t35.5 -32t23.5 -37q22 -44 25 -99q-3 -57 -25 -101q-9 -19 -23.5 -37t-35.5 -32t-49.5 -22.5t-65.5 -8.5q-38 0 -66.5 8.5t-50 22.5t-36 32t-23.5 37q-22 44 -25 101h100
q2 -29 13 -51q10 -19 30 -34.5t58 -15.5t57.5 15.5t29.5 34.5q11 22 13 51q0 38 -15.5 57.5t-34.5 29.5q-22 11 -50 13q-38 0 -66.5 8.5t-50 22.5t-36 31.5t-23.5 36.5q-22 43 -25 99v401h400v-100z" />
    <glyph glyph-name="six" unicode="6" 
d="M251 400q37 0 65.5 -8.5t49.5 -22.5t35.5 -32t23.5 -37q22 -44 25 -99q-3 -57 -25 -101q-9 -19 -23.5 -37t-35.5 -32t-49.5 -22.5t-65.5 -8.5q-38 0 -66.5 8.5t-50 22.5t-36 32t-23.5 37q-22 44 -25 101v498q3 56 25 100q9 19 23.5 37t36 32t50 23t66.5 9q37 0 65.5 -9
t49.5 -23t35.5 -32t23.5 -37q22 -44 25 -100h-101q-1 28 -12 50q-9 19 -29 35t-57 16q-38 0 -58 -16t-30 -35q-11 -22 -13 -50v-299h101zM251 100q27 2 49 13q18 10 33.5 30t15.5 58q0 37 -15.5 57t-33.5 29q-22 11 -49 12h-101v-98q0 -38 15.5 -58t34.5 -30q22 -11 51 -13z
" />
    <glyph glyph-name="seven" unicode="7" 
d="M251 901q37 0 65.5 -8.5t49.5 -22.5t35.5 -32t23.5 -37q22 -44 25 -100v-701h-99v301h-201v99h201v301q0 38 -15.5 57.5t-34.5 29.5q-22 11 -50 13h-201v100h201v0z" />
    <glyph glyph-name="eight" unicode="8" 
d="M450 500q0 -29 -5.5 -52.5t-15 -42t-21.5 -33.5t-25 -28q26 -17 46.5 -51t20.5 -93q0 -38 -8.5 -66.5t-22.5 -49.5t-32 -35.5t-37 -23.5q-44 -22 -100 -25q-56 3 -100 25q-19 9 -37 23.5t-32 35.5t-22.5 49.5t-8.5 66.5q1 25 7 51q5 22 16.5 47t32.5 46
q-21 25 -32.5 52.5t-16.5 50.5q-6 27 -7 53v200q3 56 25 100q9 19 23.5 37t35.5 32t49.5 22.5t66.5 8.5q37 0 66 -8.5t50 -22.5t35.5 -32t23.5 -37q22 -44 25 -100v-200zM250 100q28 1 50 12q19 9 34.5 29.5t15.5 58.5t-15.5 57.5t-34.5 29.5q-22 11 -50 13q-28 -2 -50 -13
q-19 -10 -34.5 -29.5t-15.5 -57.5t15.5 -58.5t34.5 -29.5q22 -11 50 -12zM250 400q28 1 50 12q19 9 34.5 29.5t15.5 58.5v200q-2 28 -13 50q-10 19 -29.5 34.5t-57.5 15.5t-58.5 -15.5t-29.5 -34.5q-11 -22 -12 -50v-200q0 -38 15.5 -58.5t34.5 -29.5q22 -11 50 -12z" />
    <glyph glyph-name="nine" unicode="9" 
d="M250 900q37 0 66 -8.5t50 -22.5t35.5 -32t23.5 -37q22 -44 25 -100v-500q-3 -56 -25 -100q-9 -19 -23.5 -37t-35.5 -32t-50 -22.5t-66 -8.5q-38 0 -66.5 8.5t-49.5 22.5t-35.5 32t-23.5 37q-22 44 -25 100h100q1 -28 12 -50q9 -19 29.5 -34.5t58.5 -15.5t57.5 15.5
t29.5 34.5q11 22 13 50v100h-100q-38 0 -66.5 8.5t-49.5 22.5t-35.5 32t-23.5 37q-22 44 -25 100v200q3 56 25 100q9 19 23.5 37t35.5 32t49.5 22.5t66.5 8.5zM350 500v200q-2 28 -13 50q-10 19 -29.5 34.5t-57.5 15.5t-58.5 -15.5t-29.5 -34.5q-11 -22 -12 -50v-200
q0 -38 15.5 -58.5t34.5 -29.5q22 -11 50 -12h100v100z" />
    <glyph glyph-name="colon" unicode=":" horiz-adv-x="200" 
d="M150 44q0 -17 -15 -30.5t-41 -13.5q-17 0 -30.5 13.5t-13.5 30.5q0 26 13.5 41t30.5 15q26 0 41 -15t15 -41zM150 344q0 -17 -15 -30.5t-41 -13.5q-17 0 -30.5 13.5t-13.5 30.5q0 26 13.5 41t30.5 15q26 0 41 -15t15 -41z" />
    <glyph glyph-name="semicolon" unicode=";" horiz-adv-x="200" 
d="M150 344q0 -17 -15 -30.5t-41 -13.5q-17 0 -30.5 13.5t-13.5 30.5q0 26 13.5 41t30.5 15q26 0 41 -15t15 -41zM150 100q-28 -2 -50 -13q-19 -10 -34.5 -29.5t-15.5 -57.5v-100q28 1 50 12q19 9 34.5 29.5t15.5 58.5v100z" />
    <glyph glyph-name="less" unicode="&#x3c;" horiz-adv-x="451" 
d="M50 350l284 274l66 -66l-208 -208l208 -207l-66 -77l-284 284v0v0v0z" />
    <glyph glyph-name="greater" unicode="&#x3e;" horiz-adv-x="450" 
d="M400 352v0v0l-284 -284l-66 77l207 207l-207 209l66 65l284 -274v0z" />
    <glyph glyph-name="equal" unicode="=" 
d="M450 300v-100h-400v100h400zM450 500v-100h-400v100h400z" />
    <glyph glyph-name="question" unicode="?" 
d="M150 45q0 -17 -15.5 -31t-39.5 -14q-17 0 -31 14t-14 31q0 24 14 39.5t31 15.5q24 0 39.5 -15.5t15.5 -39.5zM50 201v99q3 56 25 100q9 19 23.5 37t36 32t50 22.5t66.5 8.5q27 1 49 12q19 9 34.5 29t15.5 58v100q-1 28 -12 50q-9 19 -29.5 35t-57.5 16q-38 0 -58 -16
t-30 -35q-11 -22 -13 -50h-100q3 56 25 100q9 19 23.5 37t36 32t50 23t66.5 9q37 0 65 -9t49 -23t35.5 -32t23.5 -37q22 -44 25 -100v-100q-3 -56 -25 -100q-9 -19 -23.5 -37t-35.5 -32t-49 -22.5t-65 -8.5q-29 -1 -51 -12q-19 -9 -34.5 -29.5t-15.5 -57.5v-99h-100z" />
    <glyph glyph-name="bracketleft" unicode="[" horiz-adv-x="300" 
d="M250 800h-100v-700h100v-100h-100q-38 0 -58.5 15.5t-29.5 34.5q-11 22 -12 50v700q0 38 15.5 57.5t34.5 29.5q22 11 50 13h100v-100z" />
    <glyph glyph-name="bracketright" unicode="]" horiz-adv-x="300" 
d="M50 100h100v700h-100v100h100q38 0 57.5 -15.5t29.5 -34.5q11 -22 13 -50v-700q0 -38 -15.5 -58.5t-34.5 -29.5q-22 -11 -50 -12h-100v100z" />
    <glyph glyph-name="backslash" unicode="\" 
d="M161 900l289 -900h-100l-300 900h111v0z" />
    <glyph glyph-name="underscore" unicode="_" 
d="M450 0h-400v100h400v-100z" />
    <glyph glyph-name="grave" unicode="`" horiz-adv-x="450" 
d="M150 800q-38 0 -58.5 15.5t-29.5 34.5q-11 22 -12 50h100h100q38 0 57.5 -15.5t29.5 -34.5q11 -22 13 -50h-200z" />
    <glyph glyph-name="braceleft" unicode="{" horiz-adv-x="400" 
d="M250 500q0 -59 -20.5 -93t-46.5 -51q13 -13 25 -28t21.5 -33.5t15 -42t5.5 -52.5q1 -28 12 -50q9 -19 29.5 -34.5t58.5 -15.5v-100q-56 3 -100 25q-19 9 -37 23.5t-32 35.5t-22.5 49.5t-8.5 66.5q-1 28 -11 50q-8 19 -26.5 34.5t-51.5 15.5h-11v100q38 4 57.5 20t29.5 34
q11 21 13 46v200q0 37 8.5 66t22.5 50t32 35.5t37 23.5q44 22 100 25v-100q-38 0 -58.5 -15.5t-29.5 -34.5q-11 -22 -12 -50v-200v0z" />
    <glyph glyph-name="braceright" unicode="}" horiz-adv-x="400" 
d="M150 500v200q-2 28 -13 50q-10 19 -29.5 34.5t-57.5 15.5v100q56 -3 100 -25q19 -9 37 -23.5t32 -35.5t22.5 -50t8.5 -66v-200q1 -25 12 -46q9 -18 29.5 -34t58.5 -20v-100h-11q-34 0 -52 -15.5t-26 -34.5q-10 -22 -11 -50q0 -38 -8.5 -66.5t-22.5 -49.5t-32 -35.5
t-37 -23.5q-44 -22 -100 -25v100q38 0 57.5 15.5t29.5 34.5q11 22 13 50q0 59 16.5 94.5t50.5 61.5q-34 17 -50.5 51t-16.5 93z" />
    <glyph glyph-name="Euro" unicode="&#x20ac;" 
d="M450 200h-400v100h400v-100zM450 400h-400v100h400v-100zM253 798q-29 -1 -52 -12q-20 -9 -36 -29.5t-16 -57.5v-200h302v-101h-302v-99h302v-99h-302q2 -28 13 -50q10 -19 30 -34.5t58 -15.5q36 -1 71.5 -1h64.5h65v-99h-201q-56 3 -100 25q-19 9 -37 23.5t-32 35.5
t-22.5 49.5t-8.5 66.5v299v200q3 56 25 100q9 19 24 37t36.5 32t50.5 23t67 9h198v-102h-198z" />
    <glyph glyph-name="OE" unicode="&#x152;" horiz-adv-x="800" 
d="M550 800q-28 -2 -50 -13q-19 -10 -34 -29.5t-15 -57.5v-299h199v-101h-199v-100q1 -28 12 -50q9 -19 29 -34.5t58 -15.5h200v-100h-200q-26 1 -52 7q-23 5 -50.5 16.5t-52.5 32.5q-17 -26 -51.5 -41t-93.5 -15q-38 0 -66.5 8.5t-49.5 22.5t-35.5 32t-23.5 37
q-22 44 -25 100v500q3 56 25 100q9 19 23.5 37t35.5 32t49.5 22.5t66.5 8.5q59 0 93.5 -20.5t51.5 -45.5q25 25 61 45.5t94 20.5h200v-100h-200zM250 100q38 0 57.5 15.5t29.5 34.5q11 22 13 50v500q-2 28 -13 50q-10 19 -29.5 34.5t-57.5 15.5t-58.5 -15.5t-29.5 -34.5
q-11 -22 -12 -50v-500q1 -28 12 -50q9 -19 29.5 -34.5t58.5 -15.5z" />
    <glyph glyph-name="quotedblright" unicode="&#x201d;" horiz-adv-x="400" 
d="M150 800q0 -38 -15.5 -58t-34.5 -29q-22 -11 -50 -12v99q0 38 15.5 57.5t34.5 29.5q22 11 50 13v-100zM350 800q0 -38 -15.5 -58t-34.5 -29q-22 -11 -50 -12v99q0 38 15.5 57.5t34.5 29.5q22 11 50 13v-100z" />
    <glyph glyph-name="quotedblleft" unicode="&#x201c;" horiz-adv-x="400" 
d="M249 900q28 -1 50 -12q19 -9 34.5 -29.5t15.5 -57.5v-100q-28 1 -50 12q-19 9 -34.5 29.5t-15.5 58.5v99zM50 900q28 -1 50 -12q19 -9 34.5 -29.5t15.5 -57.5v-100q-28 1 -50 12q-19 9 -34.5 29.5t-15.5 58.5v99z" />
    <glyph glyph-name="quoteleft" unicode="&#x2018;" horiz-adv-x="200" 
d="M50 900q28 -2 50 -13q19 -10 34.5 -29.5t15.5 -57.5v-99q-28 1 -50 12q-19 9 -34.5 29t-15.5 58v100z" />
    <glyph glyph-name="quoteright" unicode="&#x2019;" horiz-adv-x="200" 
d="M150 800q0 -38 -15.5 -58t-34.5 -29q-22 -11 -50 -12v99q0 38 15.5 57.5t34.5 29.5q22 11 50 13v-100z" />
    <glyph glyph-name="bullet" unicode="&#x2022;" horiz-adv-x="298" 
d="M250 400q0 -21 -8 -39.5t-21.5 -32t-31.5 -21t-39 -7.5t-39.5 7.5t-32 21t-21 32t-7.5 39.5t7.5 39t21 31.5t32 21.5t39.5 8t39 -8t31.5 -21.5t21.5 -31.5t8 -39z" />
    <glyph glyph-name="cent" unicode="&#xa2;" 
d="M351 601v-502h100v-99h-100v-100h-102v100q-38 0 -66 8.5t-49 22.5t-35.5 32t-23.5 37q-22 44 -25 101v298q3 56 25 101q9 19 23.5 37t35.5 32t49 23t66 9v100h102v-100h100v-100h-100zM249 601q-38 0 -58 -16t-29 -35q-11 -23 -12 -51v-298q1 -29 12 -51q9 -20 29 -35.5
t58 -15.5v502z" />
    <glyph glyph-name="oe" unicode="&#x153;" horiz-adv-x="800" 
d="M551 601l-16 -1.5t-35 -11.5t-34.5 -30.5t-15.5 -57.5v-100h200v-100h-200v-100q2 -28 13 -50q10 -19 30 -34.5t58 -15.5h200v-100h-200q-24 1 -50 7q-22 5 -49 16.5t-52 32.5q-17 -26 -54 -41t-96 -15q-38 0 -66.5 8.5t-49.5 22.5t-35.5 32t-23.5 37q-22 44 -25 100v300
q2 56 24 100q9 19 23.5 37t35.5 32t49.5 22.5t66.5 8.5q59 0 95.5 -20.5t55.5 -46.5q11 13 25 25t32 21.5t41 15t52 5.5h200l1 -99h-200zM250 100q38 0 57.5 15.5t29.5 34.5q11 22 13 50v300q-2 28 -13 50q-10 19 -29.5 34.5t-57.5 15.5t-58.5 -15.5t-29.5 -34.5
q-11 -22 -12 -50v-300q1 -28 12 -50q9 -19 29.5 -34.5t58.5 -15.5z" />
    <glyph glyph-name="Ydieresis" unicode="&#x178;" 
d="M350 899v-399q-2 -28 -13 -50q-10 -19 -29.5 -34.5t-57.5 -15.5t-58.5 15.5t-29.5 34.5q-11 22 -12 50v399h-100v-399q2 -48 19 -88q7 -17 18 -34.5t26.5 -33t37 -27.5t49.5 -18v-299h100v300q56 12 86.5 44.5t44.5 67.5q17 40 19 88v399h-100zM200 1050q0 -19 -8 -29
t-17 -15q-11 -5 -25 -6q-19 0 -29 7.5t-15 17.5q-5 11 -6 25q0 19 7.5 29t17.5 15q11 5 25 6q19 0 29 -8t15 -17q5 -11 6 -25zM400 1050q-1 -14 -6 -25q-5 -10 -15 -17.5t-29 -7.5q-14 1 -25 6q-10 5 -17.5 15t-7.5 29q1 14 6 25q5 9 15 17t29 8q14 -1 25 -6q9 -5 17 -15
t8 -29z" />
    <glyph glyph-name="sterling" unicode="&#xa3;" 
d="M350 600v100q-2 28 -13 50q-10 19 -29.5 34.5t-57.5 15.5t-58.5 -15.5t-29.5 -34.5q-11 -22 -12 -50v-300h200v-100h-200v-200h300v-100h-400v700q3 56 25 100q9 19 23.5 37t35.5 32t49.5 22.5t66.5 8.5q37 0 66 -8.5t50 -22.5t35.5 -32t23.5 -37q22 -44 25 -100v-100
h-100z" />
    <glyph glyph-name="yen" unicode="&#xa5;" 
d="M450 500q-3 -48 -20 -88q-15 -35 -46.5 -67.5t-89.5 -44.5v-100h156v-100h-156v-100h-100v100h-144v100h144v100q-54 12 -83 44.5t-43 67.5q-16 40 -18 88v400h100v-400q1 -28 12 -50q9 -19 29.5 -34.5t58.5 -15.5t57.5 15.5t29.5 34.5q11 22 13 50v400h100v-400v0z" />
    <glyph glyph-name="mu" unicode="&#xb5;" 
d="M450 701v-701h-99v22q-17 -8 -42 -15t-59 -7q-33 0 -58 7t-42 15v-122h-100v801h100v-500q1 -29 12 -51q9 -19 29.5 -34.5t58.5 -15.5t58 15.5t30 34.5q11 22 13 51v500h99z" />
    <glyph glyph-name="mu" unicode="&#x3bc;" 
d="M450 701v-701h-99v22q-17 -8 -42 -15t-59 -7q-33 0 -58 7t-42 15v-122h-100v801h100v-500q1 -29 12 -51q9 -19 29.5 -34.5t58.5 -15.5t58 15.5t30 34.5q11 22 13 51v500h99z" />
    <glyph glyph-name="periodcentered" unicode="&#xb7;" horiz-adv-x="200" 
d="M150 350q0 -19 -8 -29t-17 -15q-11 -5 -25 -6q-19 0 -29 7.5t-15 17.5q-5 11 -6 25q0 19 7.5 29t17.5 15q11 5 25 6q19 0 29 -8t15 -17q5 -11 6 -25z" />
    <glyph glyph-name="paragraph" unicode="&#xb6;" 
d="M450 900v-900h-100v800h-100v-800h-100v322q-42 17 -71 60t-29 118v200q3 56 25 100q9 19 23.5 37t35.5 32t49.5 22.5t66.5 8.5h200z" />
    <glyph glyph-name="a" unicode="a" 
d="M250 700q37 0 66 -8.5t50 -22.5t35.5 -32t23.5 -37q22 -44 25 -100v-500h-99v301h-201v-301h-100v500q3 56 25 100q9 19 23.5 37t35.5 32t49.5 22.5t66.5 8.5zM351 500q-2 28 -13 50q-10 19 -30 34.5t-58 15.5t-58.5 -15.5t-29.5 -34.5q-11 -22 -12 -50v-100h201v100z
" />
    <glyph glyph-name="b" unicode="b" 
d="M384 345q25 -17 45.5 -51.5t20.5 -93.5q0 -38 -8.5 -66.5t-22.5 -49.5t-32 -35.5t-37 -23.5q-44 -22 -100 -25h-200v700h201q56 -3 100 -25q19 -9 36.5 -23.5t31.5 -35.5t22.5 -50t8.5 -66q0 -29 -5.5 -52.5t-15 -42t-21.5 -33.5t-24 -27zM150 400h100q28 1 50 12
q19 9 35 29.5t16 58.5t-16 57.5t-35 29.5q-22 11 -50 13h-100v-200zM250 100q28 1 50 12q19 9 35 29.5t16 58.5t-16 58t-35 30q-22 11 -50 13h-100v-201h100z" />
    <glyph glyph-name="c" unicode="c" 
d="M50 500q3 56 25 100q9 19 24 37t36 32t49.5 22.5t66.5 8.5q37 0 65.5 -8.5t49.5 -22.5t35.5 -32t23.5 -37q22 -44 25 -100h-99q-2 28 -13 50q-10 19 -30 34.5t-58 15.5t-58.5 -15.5t-29.5 -34.5q-11 -22 -12 -50v-300q1 -28 12 -50q9 -19 29.5 -34.5t58.5 -15.5t58 15.5
t30 34.5q11 22 13 50h99q-3 -56 -25 -100q-9 -19 -23.5 -37t-35.5 -32t-50 -22.5t-66 -8.5q-38 0 -66.5 8.5t-49.5 22.5t-35.5 32t-23.5 37q-22 44 -25 100v300z" />
    <glyph glyph-name="d" unicode="d" 
d="M251 700q55 -3 99 -25q19 -9 37 -23.5t32 -35.5t22.5 -50t8.5 -66v-300q-3 -56 -25 -100q-9 -19 -23.5 -37t-35.5 -32t-50 -22.5t-66 -8.5h-200v700h201zM351 500q-2 28 -13 50q-10 19 -30 34.5t-58 15.5h-100v-500h100q28 1 50 12q19 9 35 29.5t16 58.5v300z" />
    <glyph glyph-name="e" unicode="e" 
d="M50 500q3 56 25 100q9 19 24 37t36 32t49.5 22.5t66.5 8.5h199v-100h-200q-28 -2 -50 -13q-19 -10 -34.5 -29.5t-15.5 -57.5v-100h201v-99h-201v-101q1 -28 12 -50q9 -19 29.5 -34.5t58.5 -15.5h200v-100h-200q-56 3 -100 25q-19 9 -37 23.5t-32 35.5t-22.5 49.5
t-8.5 66.5v300z" />
    <glyph glyph-name="f" unicode="f" 
d="M50 0v500q3 56 25 100q9 19 23.5 37t35.5 32t49.5 22.5t66.5 8.5h200v-100h-200q-28 -2 -50 -13q-19 -10 -34.5 -29.5t-15.5 -57.5v-100h201v-99h-201v-301h-100z" />
    <glyph glyph-name="g" unicode="g" 
d="M250 400h200v-199q-3 -57 -25 -101q-9 -19 -23.5 -37t-35.5 -32t-50 -22.5t-66 -8.5q-38 0 -66.5 8.5t-49.5 22.5t-35.5 32t-23.5 37q-22 44 -25 101v299q3 56 25 100q9 19 23.5 37t35.5 32t49.5 22.5t66.5 8.5q37 0 66 -8.5t50 -22.5t35.5 -32t23.5 -37q22 -44 25 -100
h-99q-2 28 -13 50q-10 19 -30 35t-58 16t-58.5 -16t-29.5 -35q-11 -22 -12 -50v-299q1 -29 12 -51q9 -19 29.5 -34.5t58.5 -15.5t58 15.5t30 34.5q11 22 13 51v100h-101v99z" />
    <glyph glyph-name="h" unicode="h" 
d="M50 700h100v-300h200v300h100v-700h-100v300h-200v-300h-100v701v-1z" />
    <glyph glyph-name="i" unicode="i" horiz-adv-x="200" 
d="M150 0h-100v700h100v-700v0z" />
    <glyph glyph-name="j" unicode="j" 
d="M50 201l100 -1q1 -28 12 -50q9 -19 29.5 -34.5t58.5 -15.5t57.5 15.5t29.5 34.5q11 22 13 50v500h100v-500q-3 -56 -25 -100q-9 -19 -23.5 -37t-35.5 -32t-49.5 -22.5t-65.5 -8.5q-38 0 -66.5 8.5t-50 22.5t-36 32t-23.5 37q-22 44 -25 100v1z" />
    <glyph glyph-name="k" unicode="k" 
d="M450 500q0 -29 -5.5 -52.5t-15 -42t-21.5 -33.5t-24 -27q25 -17 45.5 -51t20.5 -93v-201h-99v201q-2 27 -13 49q-10 19 -30 34.5t-58 15.5h-100v-300h-100v700h100v-300h100q38 0 58 15.5t30 34.5q11 22 13 50l-1 200h100v-200v0z" />
    <glyph glyph-name="l" unicode="l" 
d="M150 699v-499q0 -38 15.5 -58t34.5 -29q22 -11 50 -12h200v-101h-200q-38 0 -66.5 8.5t-49.5 22.5t-35.5 32t-23.5 37q-22 44 -25 100v500z" />
    <glyph glyph-name="m" unicode="m" horiz-adv-x="833" 
d="M550 700q37 0 66 -8.5t50 -22.5t35.5 -32t23.5 -37q22 -44 25 -99v-501h-100v501q-2 28 -13 50q-10 19 -29.5 34.5t-57.5 15.5t-58.5 -15.5t-29.5 -34.5q-11 -22 -12 -50v-501h-100v501q-2 28 -13 50q-10 19 -29.5 34.5t-57.5 15.5t-58.5 -15.5t-29.5 -34.5
q-11 -22 -12 -50v-501h-100v501q3 55 25 99q9 19 23.5 37t35.5 32t49.5 22.5t66.5 8.5q60 0 97 -19.5t53 -45.5q12 13 26 24.5t31.5 20.5t40 14.5t52.5 5.5z" />
    <glyph glyph-name="n" unicode="n" 
d="M50 0v500q3 56 25 100q9 19 23.5 37t35.5 32t49.5 22.5t66.5 8.5q37 0 66 -8.5t50 -22.5t35.5 -32t23.5 -37q22 -44 25 -100v-500h-100v500q-2 28 -13 50q-10 19 -29.5 34.5t-57.5 15.5t-58 -15.5t-29 -34.5q-11 -22 -12 -50v-500h-101z" />
    <glyph glyph-name="ntilde" unicode="&#xf1;" 
d="M50 800q1 28 12 50q9 19 29.5 34.5t58.5 15.5h300q-2 -28 -13 -50q-10 -19 -29.5 -34.5t-57.5 -15.5h-300zM50 0v500q3 56 25 100q9 19 23.5 37t35.5 32t49.5 22.5t66.5 8.5q37 0 66 -8.5t50 -22.5t35.5 -32t23.5 -37q22 -44 25 -100v-500h-100v500q-2 28 -13 50
q-10 19 -29.5 34.5t-57.5 15.5t-58 -15.5t-29 -34.5q-11 -22 -12 -50v-500h-101z" />
    <glyph glyph-name="o" unicode="o" 
d="M250 700q37 0 66 -8.5t50 -22.5t35.5 -32t23.5 -37q22 -44 25 -100v-299q-3 -57 -25 -101q-9 -19 -23.5 -37t-35.5 -32t-50 -22.5t-66 -8.5q-38 0 -66.5 8.5t-49.5 22.5t-35.5 32t-23.5 37q-22 44 -25 101v299q3 56 25 100q9 19 23.5 37t35.5 32t49.5 22.5t66.5 8.5z
M351 500q-2 28 -13 50q-10 19 -30 35t-58 16t-58.5 -16t-29.5 -35q-11 -22 -12 -50v-299q1 -29 12 -51q9 -19 29.5 -34.5t58.5 -15.5t58 15.5t30 34.5q11 22 13 51v299z" />
    <glyph glyph-name="p" unicode="p" 
d="M250 700q37 0 65.5 -8.5t49.5 -22.5t36 -32t24 -37q22 -44 25 -100q0 -38 -8.5 -66.5t-22.5 -49.5t-32 -35.5t-37 -23.5q-44 -22 -100 -25h-100v-300h-100v700h200zM251 400q28 1 50 12q19 9 34.5 29.5t15.5 58.5t-16 58.5t-35 29.5q-22 11 -50 12h-100v-200h100h1z" />
    <glyph glyph-name="q" unicode="q" 
d="M450 200q0 -16 -3 -33q-2 -14 -6.5 -31.5t-12.5 -34.5l22 -34l-67 -67l-34 23q-16 -9 -40.5 -16t-58.5 -7q-38 0 -66.5 8.5t-49.5 22.5t-35.5 32t-23.5 37q-22 44 -25 100v300q3 56 25 100q9 19 23.5 37t35.5 32t49.5 22.5t66.5 8.5q37 0 66 -8.5t50 -22.5t35.5 -32
t23.5 -37q22 -44 25 -100v-300zM349 179v21v300q-1 27 -12 49q-9 19 -29.5 34.5t-57.5 15.5q-38 0 -58 -15.5t-30 -34.5q-11 -22 -13 -49v-300q2 -28 13 -50q10 -19 30 -34t58 -15h22l-33 45l67 65z" />
    <glyph glyph-name="r" unicode="r" 
d="M383 345q25 -21 39 -46.5t20 -47.5q7 -26 8 -51v-200h-100v200q0 38 -15.5 57.5t-34.5 29.5q-22 11 -50 13h-100v-300h-100v700h200q37 0 66 -8.5t50 -22.5t35.5 -32t23.5 -37q22 -44 25 -100q0 -58 -20.5 -94t-46.5 -61zM250 400q28 1 50 12q19 9 34.5 29.5t15.5 58.5
t-15.5 57.5t-34.5 29.5q-22 11 -50 13h-100v-200h100z" />
    <glyph glyph-name="s" unicode="s" 
d="M150 199q0 -38 15 -58t34 -29q22 -11 50 -12q28 1 50 12q19 9 35 29t16 58t-16 58t-35 30q-22 11 -50 13q-38 0 -66 8.5t-49 22.5t-35.5 32t-23.5 37q-22 44 -25 100q3 56 25 100q9 19 23.5 37t35.5 32t49 22.5t66 8.5q37 0 66 -8.5t50 -22.5t36 -32t24 -37
q22 -44 25 -100h-100q0 37 -16 57.5t-35 29.5q-22 11 -50 12q-28 -1 -50 -12q-19 -9 -34 -29.5t-15 -57.5q0 -38 15 -58.5t34 -29.5q22 -11 50 -12q37 0 66 -9t50 -23t36 -32t24 -37q22 -44 25 -100q-3 -56 -25 -100q-9 -19 -24 -36.5t-36 -31.5t-50 -22.5t-66 -8.5
q-38 0 -66 8.5t-49 22.5t-35.5 31.5t-23.5 36.5q-22 44 -25 100h100z" />
    <glyph glyph-name="t" unicode="t" 
d="M450 700v-100l-150 -1v-599h-100v599l-150 1v100h400v0z" />
    <glyph glyph-name="u" unicode="u" 
d="M150 700v-500q1 -28 12 -50q9 -19 29.5 -34.5t58.5 -15.5t57.5 15.5t29.5 34.5q11 22 13 50v500h100v-500q-3 -56 -25 -100q-9 -19 -23.5 -37t-35.5 -32t-50 -22.5t-66 -8.5q-38 0 -66.5 8.5t-49.5 22.5t-35.5 32t-23.5 37q-22 44 -25 100v500h100z" />
    <glyph glyph-name="v" unicode="v" 
d="M150 700v-600h99q38 0 58 15.5t30 34.5q11 22 13 50v500h100v-500q0 -38 -9 -66.5t-23 -49.5t-32 -35.5t-37 -23.5q-44 -22 -100 -25h-199v700h100z" />
    <glyph glyph-name="w" unicode="w" horiz-adv-x="800" 
d="M750 700v-500q-3 -56 -25 -100q-9 -19 -23.5 -37t-35.5 -32t-50 -22.5t-66 -8.5q-59 0 -95 16.5t-60 50.5q-17 -34 -51.5 -50.5t-93.5 -16.5q-38 0 -66.5 8.5t-49.5 22.5t-35.5 32t-23.5 37q-22 44 -25 100v500h100v-500q1 -28 12 -50q9 -19 29.5 -34.5t58.5 -15.5
t57.5 15.5t29.5 34.5q11 22 13 50v500h100v-500q1 -28 12 -50q9 -19 29.5 -34.5t58.5 -15.5t57.5 15.5t29.5 34.5q11 22 13 50v500h100z" />
    <glyph glyph-name="x" unicode="x" 
d="M450 500q-1 -26 -8 -53q-6 -23 -20 -50.5t-39 -52.5q25 -21 39 -46t20 -47q7 -26 8 -51v-200h-100v200q0 38 -15.5 57.5t-34.5 29.5q-22 11 -50 13q-28 -2 -50 -13q-19 -10 -34.5 -29.5t-15.5 -57.5v-200h-100v200q1 25 7 51q5 22 16.5 47t32.5 46q-21 25 -32.5 52.5
t-16.5 50.5q-6 27 -7 53v200h100v-200q0 -38 15.5 -58.5t34.5 -29.5q22 -11 50 -12q28 1 50 12q19 9 34.5 29.5t15.5 58.5v200h100v-200v0z" />
    <glyph glyph-name="y" unicode="y" 
d="M450 700v-200q-2 -48 -19 -88q-14 -35 -44.5 -67.5t-86.5 -44.5v-300h-100v299q-28 6 -49.5 18t-37 27.5t-26.5 33t-18 34.5q-17 40 -19 88v200h100v-200q1 -28 12 -50q9 -19 29.5 -34.5t58.5 -15.5t57.5 15.5t29.5 34.5q11 22 13 50v200h100z" />
    <glyph glyph-name="z" unicode="z" horiz-adv-x="499" 
d="M450 700v-199q-3 -57 -25 -101q-9 -19 -24 -37t-36 -32t-50 -22.5t-66 -8.5q-28 -2 -50 -13q-19 -10 -34 -29.5t-15 -57.5v-99h300v-101h-400v200q3 59 25 104q9 19 23.5 37t35.5 32t49 21.5t66 5.5q28 2 50 13q19 10 35 30t16 58v99h-300v100h400z" />
    <glyph glyph-name="Agrave" unicode="&#xc0;" horiz-adv-x="501" 
d="M150 1000q-38 0 -58.5 15.5t-29.5 34.5q-11 22 -12 50h100h100q38 0 57.5 -15.5t29.5 -34.5q11 -22 13 -50h-200zM250 900q37 0 66 -8.5t50 -22.5t35.5 -32t23.5 -37q22 -44 25 -100v-700h-97l-2 300h-200v-300h-101v700q3 56 25 100q9 19 23.5 37t35.5 32t49.5 22.5
t66.5 8.5zM351 700q-2 28 -13 50q-10 19 -30 35t-58 16t-58 -16t-29 -35q-11 -22 -12 -50v-301h200v301z" />
    <glyph glyph-name="Aacute" unicode="&#xc1;" horiz-adv-x="501" 
d="M150 1000q1 28 12 50q9 19 29.5 34.5t58.5 15.5h99h101q-2 -28 -13 -50q-10 -19 -30 -34.5t-58 -15.5h-199zM250 900q-38 0 -66.5 -8.5t-49.5 -22.5t-35.5 -32t-23.5 -37q-22 -44 -25 -100v-700h101v300h200l2 -300h97v700q-3 56 -25 100q-9 19 -23.5 37t-35.5 32
t-50 22.5t-66 8.5zM351 399h-200v301q1 28 12 50q9 19 29 35t58 16t58 -16t30 -35q11 -22 13 -50v-301z" />
    <glyph glyph-name="Atilde" unicode="&#xc3;" horiz-adv-x="501" 
d="M50 999q1 28 12 50q9 19 29.5 34.5t58.5 15.5h200h100q-2 -28 -13 -50q-10 -19 -29.5 -34.5t-57.5 -15.5h-300zM250 900q-38 0 -66.5 -8.5t-49.5 -22.5t-35.5 -32t-23.5 -37q-22 -44 -25 -100v-700h101v300h200l2 -300h97v700q-3 56 -25 100q-9 19 -23.5 37t-35.5 32
t-50 22.5t-66 8.5zM351 399h-200v301q1 28 12 50q9 19 29 35t58 16t58 -16t30 -35q11 -22 13 -50v-301z" />
    <glyph glyph-name="Adieresis" unicode="&#xc4;" horiz-adv-x="501" 
d="M200 1050q0 -19 -8 -29t-17 -15q-11 -5 -25 -6q-19 0 -29 7.5t-15 17.5q-5 11 -6 25q0 19 7.5 29t17.5 15q11 5 25 6q19 0 29 -8t15 -17q5 -11 6 -25zM400 1050q-1 -14 -6 -25q-5 -10 -15 -17.5t-29 -7.5q-14 1 -25 6q-10 5 -17.5 15t-7.5 29q1 14 6 25q5 9 15 17t29 8
q14 -1 25 -6q9 -5 17 -15t8 -29zM250 900q-38 0 -66.5 -8.5t-49.5 -22.5t-35.5 -32t-23.5 -37q-22 -44 -25 -100v-700h101v300h200l2 -300h97v700q-3 56 -25 100q-9 19 -23.5 37t-35.5 32t-50 22.5t-66 8.5zM351 399h-200v301q1 28 12 50q9 19 29 35t58 16t58 -16t30 -35
q11 -22 13 -50v-301z" />
    <glyph glyph-name="Aring" unicode="&#xc5;" horiz-adv-x="501" 
d="M300 1050q0 -19 -8 -29t-17 -15q-11 -5 -25 -6q-19 0 -29 7.5t-15 17.5q-5 11 -6 25q0 19 7.5 29t17.5 15q11 5 25 6q19 0 29 -8t15 -17q5 -11 6 -25zM250 900q-38 0 -66.5 -8.5t-49.5 -22.5t-35.5 -32t-23.5 -37q-22 -44 -25 -100v-700h101v300h200l2 -300h97v700
q-3 56 -25 100q-9 19 -23.5 37t-35.5 32t-50 22.5t-66 8.5zM351 399h-200v301q1 28 12 50q9 19 29 35t58 16t58 -16t30 -35q11 -22 13 -50v-301z" />
    <glyph glyph-name="AE" unicode="&#xc6;" horiz-adv-x="800" 
d="M550 800q-28 -2 -50 -13q-19 -10 -34.5 -29.5t-15.5 -57.5v-300h200v-100h-200v-100q1 -28 12 -50q9 -19 29.5 -34.5t58.5 -15.5h200v-100h-200q-56 3 -100 25q-19 9 -37 23.5t-32 35.5t-22.5 49.5t-8.5 66.5v100h-200v-300h-100v700q3 56 25 100q9 19 23.5 37t35.5 32
t49.5 22.5t66.5 8.5q59 0 93 -20.5t51 -46.5q13 13 28 25t33.5 21.5t42 15t52.5 5.5h200v-100h-200zM350 400v300q-2 28 -13 50q-10 19 -29.5 34.5t-57.5 15.5t-58.5 -15.5t-29.5 -34.5q-11 -22 -12 -50v-300h200z" />
    <glyph glyph-name="Ccedilla" unicode="&#xc7;" 
d="M250 100q38 0 58 15.5t29 34.5q11 22 12 50h101q-2 -48 -19 -88q-14 -35 -44.5 -67.5t-86.5 -44.5v-100h-100v100q-27 6 -48 18t-37 27t-27 32.5t-18 34.5q-18 40 -21 88v500q3 56 25 100q9 19 23.5 37t35.5 32t49.5 22.5t66.5 8.5q37 0 66 -8.5t50 -22.5t36 -32t24 -37
q22 -44 25 -100h-101q-1 28 -12 50q-9 19 -29 34.5t-58 15.5t-58.5 -15.5t-29.5 -34.5q-11 -22 -12 -50v-500q1 -28 12 -50q9 -19 29.5 -34.5t58.5 -15.5z" />
    <glyph glyph-name="Egrave" unicode="&#xc8;" 
d="M150 1000q-38 0 -58.5 15.5t-29.5 34.5q-11 22 -12 50h100h100q38 0 57.5 -15.5t29.5 -34.5q11 -22 13 -50h-200zM50 700q3 56 25 100q9 19 23.5 37t35.5 32t49.5 22.5t66.5 8.5h200v-100h-200q-28 -2 -50 -13q-19 -10 -34.5 -29.5t-15.5 -57.5v-300h200v-100h-200v-100
q1 -28 12 -50q9 -19 29.5 -34.5t58.5 -15.5h200v-100h-200q-56 3 -100 25q-19 9 -37 23.5t-32 35.5t-22.5 49.5t-8.5 66.5v500z" />
    <glyph glyph-name="Eacute" unicode="&#xc9;" 
d="M150 999q1 28 12 50q9 19 29.5 34.5t58.5 15.5h100h100q-2 -28 -13 -50q-10 -19 -29.5 -34.5t-57.5 -15.5h-200zM50 700q3 56 25 100q9 19 23.5 37t35.5 32t49.5 22.5t66.5 8.5h200v-100h-200q-28 -2 -50 -13q-19 -10 -34.5 -29.5t-15.5 -57.5v-300h200v-100h-200v-100
q1 -28 12 -50q9 -19 29.5 -34.5t58.5 -15.5h200v-100h-200q-56 3 -100 25q-19 9 -37 23.5t-32 35.5t-22.5 49.5t-8.5 66.5v500z" />
    <glyph glyph-name="Edieresis" unicode="&#xcb;" 
d="M200 1050q0 -19 -8 -29t-17 -15q-11 -5 -25 -6q-19 0 -29 7.5t-15 17.5q-5 11 -6 25q0 19 7.5 29t17.5 15q11 5 25 6q19 0 29 -8t15 -17q5 -11 6 -25zM400 1050q-1 -14 -6 -25q-5 -10 -15 -17.5t-29 -7.5q-14 1 -25 6q-10 5 -17.5 15t-7.5 29q1 14 6 25q5 9 15 17t29 8
q14 -1 25 -6q9 -5 17 -15t8 -29zM50 700q3 56 25 100q9 19 23.5 37t35.5 32t49.5 22.5t66.5 8.5h200v-100h-200q-28 -2 -50 -13q-19 -10 -34.5 -29.5t-15.5 -57.5v-300h200v-100h-200v-100q1 -28 12 -50q9 -19 29.5 -34.5t58.5 -15.5h200v-100h-200q-56 3 -100 25
q-19 9 -37 23.5t-32 35.5t-22.5 49.5t-8.5 66.5v500z" />
    <glyph glyph-name="dieresis" unicode="&#xa8;" 
d="M200 850q0 -19 -8 -29t-17 -15q-11 -5 -25 -6q-19 0 -29 7.5t-15 17.5q-5 11 -6 25q0 19 7.5 29t17.5 15q11 5 25 6q19 0 29 -8t15 -17q5 -11 6 -25zM400 850q-1 -14 -6 -25q-5 -10 -15 -17.5t-29 -7.5q-14 1 -25 6q-10 5 -17.5 15t-7.5 29q1 14 6 25q5 9 15 17t29 8
q14 -1 25 -6q9 -5 17 -15t8 -29z" />
    <glyph glyph-name="acute" unicode="&#xb4;" horiz-adv-x="450" 
d="M100 800q1 28 12 50q9 19 29.5 34.5t58.5 15.5h100h100q-2 -28 -13 -50q-10 -19 -29.5 -34.5t-57.5 -15.5h-200z" />
    <glyph glyph-name="Igrave" unicode="&#xcc;" horiz-adv-x="300" 
d="M250 0h-100v900h100v-900zM50 1000q-38 0 -58.5 15.5t-29.5 34.5q-11 22 -12 50h100h100q38 0 57.5 -15.5t29.5 -34.5q11 -22 13 -50h-200z" />
    <glyph glyph-name="Iacute" unicode="&#xcd;" horiz-adv-x="300" 
d="M150 0h-100v900h100v-900zM50 1000q1 28 12 50q9 19 29.5 34.5t58.5 15.5h100h100q-2 -28 -13 -50q-10 -19 -29.5 -34.5t-57.5 -15.5h-200z" />
    <glyph glyph-name="Idieresis" unicode="&#xcf;" horiz-adv-x="200" 
d="M150 0h-100v900h100v-900zM50 1050q0 -19 -8 -29t-17 -15q-11 -5 -25 -6q-19 0 -29 7.5t-15 17.5q-5 11 -6 25q0 19 7.5 29t17.5 15q11 5 25 6q19 0 29 -8t15 -17q5 -11 6 -25zM250 1050q-1 -14 -6 -25q-5 -10 -15 -17.5t-29 -7.5q-14 1 -25 6q-10 5 -17.5 15t-7.5 29
q1 14 6 25q5 9 15 17t29 8q14 -1 25 -6q9 -5 17 -15t8 -29z" />
    <glyph glyph-name="Ograve" unicode="&#xd2;" 
d="M150 1001q-38 0 -58.5 15t-29.5 34q-11 22 -12 50h100h99q38 0 58 -15.5t30 -34.5q11 -22 13 -49h-200zM250 900q37 0 66 -8.5t50 -22.5t35.5 -32t23.5 -37q22 -44 25 -100v-500q-3 -56 -25 -100q-9 -19 -23.5 -37t-35.5 -32t-50 -22.5t-66 -8.5q-38 0 -66.5 8.5
t-49.5 22.5t-35.5 32t-23.5 37q-22 44 -25 100v500q3 56 25 100q9 19 23.5 37t35.5 32t49.5 22.5t66.5 8.5zM350 700q-2 28 -13 50q-10 19 -29.5 34.5t-57.5 15.5t-58.5 -15.5t-29.5 -34.5q-11 -22 -12 -50v-500q1 -28 12 -50q9 -19 29.5 -34.5t58.5 -15.5t57.5 15.5
t29.5 34.5q11 22 13 50v500z" />
    <glyph glyph-name="Oacute" unicode="&#xd3;" 
d="M150 1001q1 27 12 49q9 19 29 34.5t58 15.5h101h100q-2 -28 -13 -50q-10 -19 -29.5 -34t-57.5 -15h-200zM250 900q-38 0 -66.5 -8.5t-49.5 -22.5t-35.5 -32t-23.5 -37q-22 -44 -25 -100v-500q3 -56 25 -100q9 -19 23.5 -37t35.5 -32t49.5 -22.5t66.5 -8.5q37 0 66 8.5
t50 22.5t35.5 32t23.5 37q22 44 25 100v500q-3 56 -25 100q-9 19 -23.5 37t-35.5 32t-50 22.5t-66 8.5zM350 200q-2 -28 -13 -50q-10 -19 -29.5 -34.5t-57.5 -15.5t-58.5 15.5t-29.5 34.5q-11 22 -12 50v500q1 28 12 50q9 19 29.5 34.5t58.5 15.5t57.5 -15.5t29.5 -34.5
q11 -22 13 -50v-500z" />
    <glyph glyph-name="Otilde" unicode="&#xd5;" 
d="M50 1000q1 28 12 50q9 19 29.5 34.5t58.5 15.5h200h100q-2 -28 -13 -50q-10 -19 -29.5 -34.5t-57.5 -15.5h-300zM250 900q-38 0 -66.5 -8.5t-49.5 -22.5t-35.5 -32t-23.5 -37q-22 -44 -25 -100v-500q3 -56 25 -100q9 -19 23.5 -37t35.5 -32t49.5 -22.5t66.5 -8.5
q37 0 66 8.5t50 22.5t35.5 32t23.5 37q22 44 25 100v500q-3 56 -25 100q-9 19 -23.5 37t-35.5 32t-50 22.5t-66 8.5zM350 200q-2 -28 -13 -50q-10 -19 -29.5 -34.5t-57.5 -15.5t-58.5 15.5t-29.5 34.5q-11 22 -12 50v500q1 28 12 50q9 19 29.5 34.5t58.5 15.5t57.5 -15.5
t29.5 -34.5q11 -22 13 -50v-500z" />
    <glyph glyph-name="Odieresis" unicode="&#xd6;" 
d="M200 1050q0 -19 -8 -29t-17 -15q-11 -5 -25 -6q-19 0 -29 7.5t-15 17.5q-5 11 -6 25q0 19 7.5 29t17.5 15q11 5 25 6q19 0 29 -8t15 -17q5 -11 6 -25zM400 1050q-1 -14 -6 -25q-5 -10 -15 -17.5t-29 -7.5q-14 1 -25 6q-10 5 -17.5 15t-7.5 29q1 14 6 25q5 9 15 17t29 8
q14 -1 25 -6q9 -5 17 -15t8 -29zM250 900q-38 0 -66.5 -8.5t-49.5 -22.5t-35.5 -32t-23.5 -37q-22 -44 -25 -100v-500q3 -56 25 -100q9 -19 23.5 -37t35.5 -32t49.5 -22.5t66.5 -8.5q37 0 66 8.5t50 22.5t35.5 32t23.5 37q22 44 25 100v500q-3 56 -25 100q-9 19 -23.5 37
t-35.5 32t-50 22.5t-66 8.5zM350 200q-2 -28 -13 -50q-10 -19 -29.5 -34.5t-57.5 -15.5t-58.5 15.5t-29.5 34.5q-11 22 -12 50v500q1 28 12 50q9 19 29.5 34.5t58.5 15.5t57.5 -15.5t29.5 -34.5q11 -22 13 -50v-500z" />
    <glyph glyph-name="Ugrave" unicode="&#xd9;" 
d="M150 999q-38 0 -58.5 15.5t-29.5 34.5q-11 22 -12 50h100h100q38 0 57.5 -15.5t29.5 -34.5q11 -22 13 -50h-200zM150 900v-700q1 -28 12 -50q9 -19 29.5 -34.5t58.5 -15.5t57.5 15.5t29.5 34.5q11 22 13 50v700h100v-700q-3 -56 -25 -100q-9 -19 -23.5 -37t-35.5 -32
t-50 -22.5t-66 -8.5q-38 0 -66.5 8.5t-49.5 22.5t-35.5 32t-23.5 37q-22 44 -25 100v700h100z" />
    <glyph glyph-name="Uacute" unicode="&#xda;" 
d="M150 998q1 28 12 50q9 19 29.5 34.5t58.5 15.5h100h100q-2 -28 -13 -50q-10 -19 -29.5 -34.5t-57.5 -15.5h-200zM50 900v-700q3 -56 25 -100q9 -19 23.5 -37t35.5 -32t49.5 -22.5t66.5 -8.5q37 0 66 8.5t50 22.5t35.5 32t23.5 37q22 44 25 100v700h-100v-700
q-2 -28 -13 -50q-10 -19 -29.5 -34.5t-57.5 -15.5t-58.5 15.5t-29.5 34.5q-11 22 -12 50v700h-100z" />
    <glyph glyph-name="Udieresis" unicode="&#xdc;" 
d="M200 1050q0 -19 -8 -29t-17 -15q-11 -5 -25 -6q-19 0 -29 7.5t-15 17.5q-5 11 -6 25q0 19 7.5 29t17.5 15q11 5 25 6q19 0 29 -8t15 -17q5 -11 6 -25zM400 1050q-1 -14 -6 -25q-5 -10 -15 -17.5t-29 -7.5q-14 1 -25 6q-10 5 -17.5 15t-7.5 29q1 14 6 25q5 9 15 17t29 8
q14 -1 25 -6q9 -5 17 -15t8 -29zM50 900v-700q3 -56 25 -100q9 -19 23.5 -37t35.5 -32t49.5 -22.5t66.5 -8.5q37 0 66 8.5t50 22.5t35.5 32t23.5 37q22 44 25 100v700h-100v-700q-2 -28 -13 -50q-10 -19 -29.5 -34.5t-57.5 -15.5t-58.5 15.5t-29.5 34.5q-11 22 -12 50v700
h-100z" />
    <glyph glyph-name="Yacute" unicode="&#xdd;" 
d="M150 1000q1 28 12 50q9 19 29.5 34.5t58.5 15.5h100h100q-2 -28 -13 -50q-10 -19 -29.5 -34.5t-57.5 -15.5h-200zM350 900v-400q-2 -28 -13 -50q-10 -19 -29.5 -34.5t-57.5 -15.5t-58.5 15.5t-29.5 34.5q-11 22 -12 50v400h-100v-400q2 -48 19 -88q14 -35 44.5 -67.5
t86.5 -44.5v-300h100v300q56 12 86.5 44.5t44.5 67.5q17 40 19 88v400h-100z" />
    <glyph glyph-name="germandbls" unicode="&#xdf;" 
d="M450 500q0 -29 -5.5 -52.5t-15 -42t-21.5 -33.5t-25 -28q25 -21 39 -46t20 -47q7 -26 8 -51q0 -38 -8.5 -66.5t-22.5 -49.5t-32 -35.5t-37 -23.5q-44 -22 -100 -25v100q28 1 50 12q19 9 34.5 29.5t15.5 58.5t-15.5 57.5t-34.5 29.5q-22 11 -50 13v100q28 1 50 12
q19 9 34.5 29.5t15.5 58.5v200q-2 28 -13 50q-10 19 -29.5 34.5t-57.5 15.5t-58.5 -15.5t-29.5 -34.5q-11 -22 -12 -50v-700h-100v700q3 56 25 100q9 19 23.5 37t35.5 32t49.5 22.5t66.5 8.5q37 0 66 -8.5t50 -22.5t35.5 -32t23.5 -37q22 -44 25 -100v-200v0z" />
    <glyph glyph-name="Thorn" unicode="&#xde;" 
d="M249 700q37 0 66 -8.5t50 -22.5t36 -32t24 -37q22 -44 25 -100v-100q-3 -57 -25 -101q-9 -19 -24 -37t-36 -32t-50 -22.5t-66 -8.5q-33 0 -57.5 8t-41.5 16v-223h-100v900h100v-222q17 8 41.5 15t57.5 7zM350 500q-2 27 -13 49q-10 19 -30 34.5t-58 15.5t-58 -15.5
t-29 -34.5q-11 -22 -12 -49v-100q1 -28 12 -50q9 -19 29 -34.5t58 -15.5t58 15.5t30 34.5q11 22 13 50v100z" />
    <glyph glyph-name="agrave" unicode="&#xe0;" 
d="M250 700q37 0 66 -8.5t50 -22.5t35.5 -32t23.5 -37q22 -44 25 -100v-500h-99v301h-201v-301h-100v500q3 56 25 100q9 19 23.5 37t35.5 32t49.5 22.5t66.5 8.5zM351 500q-2 28 -13 50q-10 19 -30 34.5t-58 15.5t-58.5 -15.5t-29.5 -34.5q-11 -22 -12 -50v-100h201v100z
M150 800q-38 0 -58.5 15.5t-29.5 34.5q-11 22 -12 50h100h100q38 0 57.5 -15.5t29.5 -34.5q11 -22 13 -50h-200z" />
    <glyph glyph-name="aacute" unicode="&#xe1;" 
d="M250 700q37 0 66 -8.5t50 -22.5t35.5 -32t23.5 -37q22 -44 25 -100v-500h-99v301h-201v-301h-100v500q3 56 25 100q9 19 23.5 37t35.5 32t49.5 22.5t66.5 8.5zM351 500q-2 28 -13 50q-10 19 -30 34.5t-58 15.5t-58.5 -15.5t-29.5 -34.5q-11 -22 -12 -50v-100h201v100z
M150 801q1 28 12 50q9 19 29.5 34.5t58.5 15.5h100h100q-2 -28 -13 -50q-10 -19 -29.5 -34.5t-57.5 -15.5h-200z" />
    <glyph glyph-name="atilde" unicode="&#xe3;" 
d="M50 800q1 28 12 50q9 19 29.5 34.5t58.5 15.5h300q-2 -28 -13 -50q-10 -19 -29.5 -34.5t-57.5 -15.5h-300zM250 700q-38 0 -66.5 -8.5t-49.5 -22.5t-35.5 -32t-23.5 -37q-22 -44 -25 -100v-500h100v301h201v-301h99v500q-3 56 -25 100q-9 19 -23.5 37t-35.5 32t-50 22.5
t-66 8.5zM351 400h-201v100q1 28 12 50q9 19 29.5 34.5t58.5 15.5t58 -15.5t30 -34.5q11 -22 13 -50v-100z" />
    <glyph glyph-name="adieresis" unicode="&#xe4;" 
d="M250 700q37 0 66 -8.5t50 -22.5t35.5 -32t23.5 -37q22 -44 25 -100v-500h-99v301h-201v-301h-100v500q3 56 25 100q9 19 23.5 37t35.5 32t49.5 22.5t66.5 8.5zM351 500q-2 28 -13 50q-10 19 -30 34.5t-58 15.5t-58.5 -15.5t-29.5 -34.5q-11 -22 -12 -50v-100h201v100z
M200 850q0 -19 -8 -29t-17 -15q-11 -5 -25 -6q-19 0 -29 7.5t-15 17.5q-5 11 -6 25q0 19 7.5 29t17.5 15q11 5 25 6q19 0 29 -8t15 -17q5 -11 6 -25zM400 850q-1 -14 -6 -25q-5 -10 -15 -17.5t-29 -7.5q-14 1 -25 6q-10 5 -17.5 15t-7.5 29q1 14 6 25q5 9 15 17t29 8
q14 -1 25 -6q9 -5 17 -15t8 -29z" />
    <glyph glyph-name="aring" unicode="&#xe5;" 
d="M300 850q0 -19 -8 -29t-17 -15q-11 -5 -25 -6q-19 0 -29 7.5t-15 17.5q-5 11 -6 25q0 19 7.5 29t17.5 15q11 5 25 6q19 0 29 -8t15 -17q5 -11 6 -25zM250 700q-38 0 -66.5 -8.5t-49.5 -22.5t-35.5 -32t-23.5 -37q-22 -44 -25 -100v-500h100v301h201v-301h99v500
q-3 56 -25 100q-9 19 -23.5 37t-35.5 32t-50 22.5t-66 8.5zM351 400h-201v100q1 28 12 50q9 19 29.5 34.5t58.5 15.5t58 -15.5t30 -34.5q11 -22 13 -50v-100z" />
    <glyph glyph-name="ae" unicode="&#xe6;" horiz-adv-x="800" 
d="M550 600q-28 -2 -50 -13q-19 -10 -34.5 -29.5t-15.5 -57.5v-100h200v-100h-200v-100q1 -28 12 -50q9 -19 29.5 -34.5t58.5 -15.5h200v-100h-200q-56 3 -100 25q-19 9 -37 23.5t-32 35.5t-22.5 49.5t-8.5 66.5v100h-200v-300h-100v500q3 56 25 100q9 19 23.5 37t35.5 32
t49.5 22.5t66.5 8.5q58 0 93 -21t52 -46q25 25 61 46t94 21h200v-100h-200zM350 400v100q-2 28 -13 50q-10 19 -29.5 34.5t-57.5 15.5t-58.5 -15.5t-29.5 -34.5q-11 -22 -12 -50v-100h200z" />
    <glyph glyph-name="ccedilla" unicode="&#xe7;" 
d="M250 100q37 0 57 15.5t30 34.5q11 22 13 50h100q-2 -47 -19 -87q-14 -35 -44.5 -67.5t-86.5 -45.5v-100h-100v100q-55 13 -85 45.5t-44 67.5q-17 40 -21 87v300q3 56 25 100q9 19 23.5 37t35.5 32t49.5 22.5t66.5 8.5q37 0 66 -8.5t50 -22.5t35.5 -32t23.5 -37
q22 -44 25 -100h-100q-2 27 -13 49q-10 19 -30 34.5t-57 15.5q-38 0 -58.5 -15.5t-29.5 -34.5q-11 -22 -12 -49v-300q1 -28 12 -50q9 -19 29.5 -34.5t58.5 -15.5z" />
    <glyph glyph-name="egrave" unicode="&#xe8;" 
d="M50 500q3 56 25 100q9 19 24 37t36 32t49.5 22.5t66.5 8.5h199v-100h-200q-28 -2 -50 -13q-19 -10 -34.5 -29.5t-15.5 -57.5v-100h201v-99h-201v-101q1 -28 12 -50q9 -19 29.5 -34.5t58.5 -15.5h200v-100h-200q-56 3 -100 25q-19 9 -37 23.5t-32 35.5t-22.5 49.5
t-8.5 66.5v300zM150 800q-38 0 -58.5 15.5t-29.5 34.5q-11 22 -12 50h100h100q38 0 57.5 -15.5t29.5 -34.5q11 -22 13 -50h-200z" />
    <glyph glyph-name="eacute" unicode="&#xe9;" 
d="M50 500q3 56 25 100q9 19 24 37t36 32t49.5 22.5t66.5 8.5h199v-100h-200q-28 -2 -50 -13q-19 -10 -34.5 -29.5t-15.5 -57.5v-100h201v-99h-201v-101q1 -28 12 -50q9 -19 29.5 -34.5t58.5 -15.5h200v-100h-200q-56 3 -100 25q-19 9 -37 23.5t-32 35.5t-22.5 49.5
t-8.5 66.5v300zM150 800q1 28 12 50q9 19 29.5 34.5t58.5 15.5h100h100q-2 -28 -13 -50q-10 -19 -29.5 -34.5t-57.5 -15.5h-200z" />
    <glyph glyph-name="edieresis" unicode="&#xeb;" 
d="M50 500q3 56 25 100q9 19 24 37t36 32t49.5 22.5t66.5 8.5h199v-100h-200q-28 -2 -50 -13q-19 -10 -34.5 -29.5t-15.5 -57.5v-100h201v-99h-201v-101q1 -28 12 -50q9 -19 29.5 -34.5t58.5 -15.5h200v-100h-200q-56 3 -100 25q-19 9 -37 23.5t-32 35.5t-22.5 49.5
t-8.5 66.5v300zM200 751q0 -19 -8 -29t-17 -15q-11 -5 -25 -6q-19 0 -29 7.5t-15 17.5q-5 11 -6 25q0 19 7.5 29t17.5 15q11 5 25 6q19 0 29 -8t15 -17q5 -11 6 -25zM400 751q-1 -14 -6 -25q-5 -10 -15 -17.5t-29 -7.5q-14 1 -25 6q-10 5 -17.5 15t-7.5 29q1 14 6 25
q5 9 15 17t29 8q14 -1 25 -6q9 -5 17 -15t8 -29z" />
    <glyph glyph-name="igrave" unicode="&#xec;" horiz-adv-x="300" 
d="M250 0h-100v700h100v-700v0zM51 800q-38 0 -58.5 15.5t-29.5 34.5q-11 22 -12 50h100h100q38 0 57.5 -15.5t29.5 -34.5q11 -22 13 -50h-200z" />
    <glyph glyph-name="iacute" unicode="&#xed;" horiz-adv-x="300" 
d="M150 0h-100v700h100v-700v0zM51 800q1 28 12 50q9 19 29.5 34.5t58.5 15.5h100h100q-2 -28 -13 -50q-10 -19 -29.5 -34.5t-57.5 -15.5h-200z" />
    <glyph glyph-name="idieresis" unicode="&#xef;" horiz-adv-x="200" 
d="M150 0h-100v700h100v-700v0zM51 850q0 -19 -8 -29t-17 -15q-11 -5 -25 -6q-19 0 -29 7.5t-15 17.5q-5 11 -6 25q0 19 7.5 29t17.5 15q11 5 25 6q19 0 29 -8t15 -17q5 -11 6 -25zM251 850q-1 -14 -6 -25q-5 -10 -15 -17.5t-29 -7.5q-14 1 -25 6q-10 5 -17.5 15t-7.5 29
q1 14 6 25q5 9 15 17t29 8q14 -1 25 -6q9 -5 17 -15t8 -29z" />
    <glyph glyph-name="ograve" unicode="&#xf2;" 
d="M250 700q37 0 66 -8.5t50 -22.5t35.5 -32t23.5 -37q22 -44 25 -100v-299q-3 -57 -25 -101q-9 -19 -23.5 -37t-35.5 -32t-50 -22.5t-66 -8.5q-38 0 -66.5 8.5t-49.5 22.5t-35.5 32t-23.5 37q-22 44 -25 101v299q3 56 25 100q9 19 23.5 37t35.5 32t49.5 22.5t66.5 8.5z
M351 500q-2 28 -13 50q-10 19 -30 35t-58 16t-58.5 -16t-29.5 -35q-11 -22 -12 -50v-299q1 -29 12 -51q9 -19 29.5 -34.5t58.5 -15.5t58 15.5t30 34.5q11 22 13 51v299zM150 800q-38 0 -58.5 15.5t-29.5 34.5q-11 22 -12 50h100h100q38 0 57.5 -15.5t29.5 -34.5
q11 -22 13 -50h-200z" />
    <glyph glyph-name="oacute" unicode="&#xf3;" 
d="M250 700q37 0 66 -8.5t50 -22.5t35.5 -32t23.5 -37q22 -44 25 -100v-299q-3 -57 -25 -101q-9 -19 -23.5 -37t-35.5 -32t-50 -22.5t-66 -8.5q-38 0 -66.5 8.5t-49.5 22.5t-35.5 32t-23.5 37q-22 44 -25 101v299q3 56 25 100q9 19 23.5 37t35.5 32t49.5 22.5t66.5 8.5z
M351 500q-2 28 -13 50q-10 19 -30 35t-58 16t-58.5 -16t-29.5 -35q-11 -22 -12 -50v-299q1 -29 12 -51q9 -19 29.5 -34.5t58.5 -15.5t58 15.5t30 34.5q11 22 13 51v299zM150 800q1 28 12 50q9 19 29.5 34.5t58.5 15.5h100h100q-2 -28 -13 -50q-10 -19 -29.5 -34.5
t-57.5 -15.5h-200z" />
    <glyph glyph-name="otilde" unicode="&#xf5;" 
d="M50 800q1 28 12 50q9 19 29.5 34.5t58.5 15.5h300q-2 -28 -13 -50q-10 -19 -29.5 -34.5t-57.5 -15.5h-300zM250 700q-38 0 -66.5 -8.5t-49.5 -22.5t-35.5 -32t-23.5 -37q-22 -44 -25 -100v-299q3 -57 25 -101q9 -19 23.5 -37t35.5 -32t49.5 -22.5t66.5 -8.5q37 0 66 8.5
t50 22.5t35.5 32t23.5 37q22 44 25 101v299q-3 56 -25 100q-9 19 -23.5 37t-35.5 32t-50 22.5t-66 8.5zM351 201q-2 -29 -13 -51q-10 -19 -30 -34.5t-58 -15.5t-58.5 15.5t-29.5 34.5q-11 22 -12 51v299q1 28 12 50q9 19 29.5 35t58.5 16t58 -16t30 -35q11 -22 13 -50v-299z
" />
    <glyph glyph-name="odieresis" unicode="&#xf6;" 
d="M250 700q37 0 66 -8.5t50 -22.5t35.5 -32t23.5 -37q22 -44 25 -100v-299q-3 -57 -25 -101q-9 -19 -23.5 -37t-35.5 -32t-50 -22.5t-66 -8.5q-38 0 -66.5 8.5t-49.5 22.5t-35.5 32t-23.5 37q-22 44 -25 101v299q3 56 25 100q9 19 23.5 37t35.5 32t49.5 22.5t66.5 8.5z
M351 500q-2 28 -13 50q-10 19 -30 35t-58 16t-58.5 -16t-29.5 -35q-11 -22 -12 -50v-299q1 -29 12 -51q9 -19 29.5 -34.5t58.5 -15.5t58 15.5t30 34.5q11 22 13 51v299zM200 850q0 -19 -8 -29t-17 -15q-11 -5 -25 -6q-19 0 -29 7.5t-15 17.5q-5 11 -6 25q0 19 7.5 29
t17.5 15q11 5 25 6q19 0 29 -8t15 -17q5 -11 6 -25zM400 850q-1 -14 -6 -25q-5 -10 -15 -17.5t-29 -7.5q-14 1 -25 6q-10 5 -17.5 15t-7.5 29q1 14 6 25q5 9 15 17t29 8q14 -1 25 -6q9 -5 17 -15t8 -29z" />
    <glyph glyph-name="ugrave" unicode="&#xf9;" 
d="M150 700v-500q1 -28 12 -50q9 -19 29.5 -34.5t58.5 -15.5t57.5 15.5t29.5 34.5q11 22 13 50v500h100v-500q-3 -56 -25 -100q-9 -19 -23.5 -37t-35.5 -32t-50 -22.5t-66 -8.5q-38 0 -66.5 8.5t-49.5 22.5t-35.5 32t-23.5 37q-22 44 -25 100v500h100zM150 800
q-38 0 -58.5 15.5t-29.5 34.5q-11 22 -12 50h100h100q38 0 57.5 -15.5t29.5 -34.5q11 -22 13 -50h-200z" />
    <glyph glyph-name="uacute" unicode="&#xfa;" 
d="M150 700v-500q1 -28 12 -50q9 -19 29.5 -34.5t58.5 -15.5t57.5 15.5t29.5 34.5q11 22 13 50v500h100v-500q-3 -56 -25 -100q-9 -19 -23.5 -37t-35.5 -32t-50 -22.5t-66 -8.5q-38 0 -66.5 8.5t-49.5 22.5t-35.5 32t-23.5 37q-22 44 -25 100v500h100zM150 800q1 28 12 50
q9 19 29.5 34.5t58.5 15.5h100h100q-2 -28 -13 -50q-10 -19 -29.5 -34.5t-57.5 -15.5h-200z" />
    <glyph glyph-name="udieresis" unicode="&#xfc;" 
d="M150 700v-500q1 -28 12 -50q9 -19 29.5 -34.5t58.5 -15.5t57.5 15.5t29.5 34.5q11 22 13 50v500h100v-500q-3 -56 -25 -100q-9 -19 -23.5 -37t-35.5 -32t-50 -22.5t-66 -8.5q-38 0 -66.5 8.5t-49.5 22.5t-35.5 32t-23.5 37q-22 44 -25 100v500h100zM200 850q0 -19 -8 -29
t-17 -15q-11 -5 -25 -6q-19 0 -29 7.5t-15 17.5q-5 11 -6 25q0 19 7.5 29t17.5 15q11 5 25 6q19 0 29 -8t15 -17q5 -11 6 -25zM400 850q-1 -14 -6 -25q-5 -10 -15 -17.5t-29 -7.5q-14 1 -25 6q-10 5 -17.5 15t-7.5 29q1 14 6 25q5 9 15 17t29 8q14 -1 25 -6q9 -5 17 -15
t8 -29z" />
    <glyph glyph-name="ydieresis" unicode="&#xff;" 
d="M450 700v-200q-2 -48 -19 -88q-14 -35 -44.5 -67.5t-86.5 -44.5v-300h-100v299q-28 6 -49.5 18t-37 27.5t-26.5 33t-18 34.5q-17 40 -19 88v200h100v-200q1 -28 12 -50q9 -19 29.5 -34.5t58.5 -15.5t57.5 15.5t29.5 34.5q11 22 13 50v200h100zM200 850q0 -19 -8 -29
t-17 -15q-11 -5 -25 -6q-19 0 -29 7.5t-15 17.5q-5 11 -6 25q0 19 7.5 29t17.5 15q11 5 25 6q19 0 29 -8t15 -17q5 -11 6 -25zM400 850q-1 -14 -6 -25q-5 -10 -15 -17.5t-29 -7.5q-14 1 -25 6q-10 5 -17.5 15t-7.5 29q1 14 6 25q5 9 15 17t29 8q14 -1 25 -6q9 -5 17 -15
t8 -29z" />
    <glyph glyph-name="thorn" unicode="&#xfe;" 
d="M250 400q56 -3 100 -25q19 -9 37 -23.5t32 -35.5t22.5 -50t8.5 -66q0 -38 -8.5 -66.5t-22.5 -49.5t-32 -35.5t-37 -23.5q-44 -22 -100 -25h-100v-100h-100v800h100v-300h100zM250 100q28 1 50 12q19 9 34.5 29.5t15.5 58.5t-15.5 57.5t-34.5 29.5q-22 11 -50 13h-100
v-200h100z" />
    <glyph glyph-name="yacute" unicode="&#xfd;" 
d="M450 700v-200q-2 -48 -19 -88q-14 -35 -44.5 -67.5t-86.5 -44.5v-300h-100v299q-28 6 -49.5 18t-37 27.5t-26.5 33t-18 34.5q-17 40 -19 88v200h100v-200q1 -28 12 -50q9 -19 29.5 -34.5t58.5 -15.5t57.5 15.5t29.5 34.5q11 22 13 50v200h100zM150 800q1 28 12 50
q9 19 29.5 34.5t58.5 15.5h100h100q-2 -28 -13 -50q-10 -19 -29.5 -34.5t-57.5 -15.5h-200z" />
    <glyph glyph-name="guilsinglright" unicode="&#x203a;" horiz-adv-x="450" 
d="M116 68l-66 77l207 207l-207 209l66 65l284 -274z" />
    <glyph glyph-name="guilsinglleft" unicode="&#x2039;" horiz-adv-x="450" 
d="M50 350l284 274l66 -66l-208 -208l208 -207l-66 -77z" />
    <glyph glyph-name="plusminus" unicode="&#xb1;" 
d="M450 301v-101h-400v100h400v1zM450 644v-99h-156v-145h-99v145h-145v99h145v156h99v-156h156z" />
    <glyph glyph-name="multiply" unicode="&#xd7;" 
d="M360 171l-109 110l-111 -110l-71 71l110 110l-102 102l71 71l102 -102l102 102l71 -71l-102 -102l110 -110z" />
    <glyph glyph-name="degree" unicode="&#xb0;" horiz-adv-x="300" 
d="M250 600q0 -21 -8 -39.5t-21.5 -32t-31.5 -21t-39 -7.5t-39.5 7.5t-32 21t-21 32t-7.5 39.5t7.5 39t21 31.5t32 21.5t39.5 8t39 -8t31.5 -21.5t21.5 -31.5t8 -39z" />
    <glyph glyph-name="A" unicode="A" horiz-adv-x="501" 
d="M250 900q37 0 66 -8.5t50 -22.5t35.5 -32t23.5 -37q22 -44 25 -100v-700h-97l-2 300h-200v-300h-101v700q3 56 25 100q9 19 23.5 37t35.5 32t49.5 22.5t66.5 8.5zM351 700q-2 28 -13 50q-10 19 -30 35t-58 16t-58 -16t-29 -35q-11 -22 -12 -50v-301h200v301z" />
    <glyph glyph-name="B" unicode="B" horiz-adv-x="498" 
d="M450 500q0 -29 -5.5 -52.5t-15 -42t-21.5 -33.5t-25 -28q26 -17 46.5 -51t20.5 -93q-3 -56 -25 -100q-9 -19 -23.5 -37t-35.5 -32t-50 -22.5t-66 -8.5h-200v900h200q37 0 66 -8.5t50 -22.5t35.5 -32t23.5 -37q22 -44 25 -100v-200zM350 200q0 38 -15.5 57.5t-34.5 29.5
q-22 11 -50 13h-100v-200h100q28 1 50 12q19 9 34.5 29.5t15.5 58.5zM250 400q28 1 50 12q19 9 34.5 29.5t15.5 58.5v200q-2 28 -13 50q-10 19 -29.5 34.5t-57.5 15.5h-100v-400h100z" />
    <glyph glyph-name="C" unicode="C" 
d="M50 700q3 56 25 100q9 19 23.5 37t35.5 32t49.5 22.5t66.5 8.5q37 0 66 -8.5t50 -22.5t35.5 -32t23.5 -37q22 -44 25 -100h-100q-2 28 -13 50q-10 19 -29.5 34.5t-57.5 15.5t-58.5 -15.5t-29.5 -34.5q-11 -22 -12 -50v-500q1 -28 12 -50q9 -19 29.5 -34.5t58.5 -15.5
t57.5 15.5t29.5 34.5q11 22 13 50h100q-3 -56 -25 -100q-9 -19 -23.5 -37t-35.5 -32t-50 -22.5t-66 -8.5q-38 0 -66.5 8.5t-49.5 22.5t-35.5 32t-23.5 37q-22 44 -25 100v500z" />
    <glyph glyph-name="circumflex" unicode="&#x2c6;" horiz-adv-x="300" 
d="M50 800l100 100l100 -100h-200v0z" />
    <glyph glyph-name="ecircumflex" unicode="&#xea;" 
d="M50 500q3 56 25 100q9 19 24 37t36 32t49.5 22.5t66.5 8.5h199v-100h-200q-28 -2 -50 -13q-19 -10 -34.5 -29.5t-15.5 -57.5v-100h201v-99h-201v-101q1 -28 12 -50q9 -19 29.5 -34.5t58.5 -15.5h200v-100h-200q-56 3 -100 25q-19 9 -37 23.5t-32 35.5t-22.5 49.5
t-8.5 66.5v300zM150 800l100 100l100 -100h-200v0z" />
    <glyph glyph-name="acircumflex" unicode="&#xe2;" 
d="M250 700q37 0 66 -8.5t50 -22.5t35.5 -32t23.5 -37q22 -44 25 -100v-500h-99v301h-201v-301h-100v500q3 56 25 100q9 19 23.5 37t35.5 32t49.5 22.5t66.5 8.5zM351 500q-2 28 -13 50q-10 19 -30 34.5t-58 15.5t-58.5 -15.5t-29.5 -34.5q-11 -22 -12 -50v-100h201v100z
M150 800l100 100l100 -100h-200v0z" />
    <glyph glyph-name="Ucircumflex" unicode="&#xdb;" 
d="M150 900v-700q1 -28 12 -50q9 -19 29.5 -34.5t58.5 -15.5t57.5 15.5t29.5 34.5q11 22 13 50v700h100v-700q-3 -56 -25 -100q-9 -19 -23.5 -37t-35.5 -32t-50 -22.5t-66 -8.5q-38 0 -66.5 8.5t-49.5 22.5t-35.5 32t-23.5 37q-22 44 -25 100v700h100zM150 1000l100 100
l100 -100h-200v0z" />
    <glyph glyph-name="ucircumflex" unicode="&#xfb;" 
d="M150 700v-500q1 -28 12 -50q9 -19 29.5 -34.5t58.5 -15.5t57.5 15.5t29.5 34.5q11 22 13 50v500h100v-500q-3 -56 -25 -100q-9 -19 -23.5 -37t-35.5 -32t-50 -22.5t-66 -8.5q-38 0 -66.5 8.5t-49.5 22.5t-35.5 32t-23.5 37q-22 44 -25 100v500h100zM150 800l100 100
l100 -100h-200v0z" />
    <glyph glyph-name="ocircumflex" unicode="&#xf4;" 
d="M250 700q37 0 66 -8.5t50 -22.5t35.5 -32t23.5 -37q22 -44 25 -100v-299q-3 -57 -25 -101q-9 -19 -23.5 -37t-35.5 -32t-50 -22.5t-66 -8.5q-38 0 -66.5 8.5t-49.5 22.5t-35.5 32t-23.5 37q-22 44 -25 101v299q3 56 25 100q9 19 23.5 37t35.5 32t49.5 22.5t66.5 8.5z
M351 500q-2 28 -13 50q-10 19 -30 35t-58 16t-58.5 -16t-29.5 -35q-11 -22 -12 -50v-299q1 -29 12 -51q9 -19 29.5 -34.5t58.5 -15.5t58 15.5t30 34.5q11 22 13 51v299zM150 800l100 100l100 -100h-200v0z" />
    <glyph glyph-name="Acircumflex" unicode="&#xc2;" horiz-adv-x="501" 
d="M250 900q37 0 66 -8.5t50 -22.5t35.5 -32t23.5 -37q22 -44 25 -100v-700h-97l-2 300h-200v-300h-101v700q3 56 25 100q9 19 23.5 37t35.5 32t49.5 22.5t66.5 8.5zM351 700q-2 28 -13 50q-10 19 -30 35t-58 16t-58 -16t-29 -35q-11 -22 -12 -50v-301h200v301zM150 1000
l100 100l100 -100h-200v0z" />
    <glyph glyph-name="Ecircumflex" unicode="&#xca;" 
d="M50 700q3 56 25 100q9 19 23.5 37t35.5 32t49.5 22.5t66.5 8.5h200v-100h-200q-28 -2 -50 -13q-19 -10 -34.5 -29.5t-15.5 -57.5v-300h200v-100h-200v-100q1 -28 12 -50q9 -19 29.5 -34.5t58.5 -15.5h200v-100h-200q-56 3 -100 25q-19 9 -37 23.5t-32 35.5t-22.5 49.5
t-8.5 66.5v500zM150 1000l100 100l100 -100h-200v0z" />
    <glyph glyph-name="Icircumflex" unicode="&#xce;" horiz-adv-x="200" 
d="M150 0h-100v900h100v-900v0zM1 1000l100 100l100 -100h-200v0z" />
    <glyph glyph-name="Ocircumflex" unicode="&#xd4;" 
d="M250 900q37 0 66 -8.5t50 -22.5t35.5 -32t23.5 -37q22 -44 25 -100v-500q-3 -56 -25 -100q-9 -19 -23.5 -37t-35.5 -32t-50 -22.5t-66 -8.5q-38 0 -66.5 8.5t-49.5 22.5t-35.5 32t-23.5 37q-22 44 -25 100v500q3 56 25 100q9 19 23.5 37t35.5 32t49.5 22.5t66.5 8.5z
M350 700q-2 28 -13 50q-10 19 -29.5 34.5t-57.5 15.5t-58.5 -15.5t-29.5 -34.5q-11 -22 -12 -50v-500q1 -28 12 -50q9 -19 29.5 -34.5t58.5 -15.5t57.5 15.5t29.5 34.5q11 22 13 50v500zM150 1000l100 100l100 -100h-200v0z" />
    <glyph glyph-name="icircumflex" unicode="&#xee;" horiz-adv-x="200" 
d="M150 0h-100v700h100v-700v0zM1 800l100 100l100 -100h-200v0z" />
    <glyph glyph-name="ordmasculine" unicode="&#xba;" horiz-adv-x="301" 
d="M250 600q0 -21 -8 -39.5t-21.5 -32t-31.5 -21t-39 -7.5t-39.5 7.5t-32 21t-21 32t-7.5 39.5t7.5 39t21 31.5t32 21.5t39.5 8t39 -8t31.5 -21.5t21.5 -31.5t8 -39z" />
  </font>
</defs>
</svg>
